<?xml version="1.0" encoding="UTF-8" standalone="no"?>
<!-- Created with Inkscape (http://www.inkscape.org/) -->

<svg
   version="1.1"
   id="svg2"
   width="6666.6665"
   height="6666.6665"
   viewBox="0 0 6666.6665 6666.6665"
   sodipodi:docname="software-developer.eps"
   xmlns:inkscape="http://www.inkscape.org/namespaces/inkscape"
   xmlns:sodipodi="http://sodipodi.sourceforge.net/DTD/sodipodi-0.dtd"
   xmlns="http://www.w3.org/2000/svg"
   xmlns:svg="http://www.w3.org/2000/svg">
  <defs
     id="defs6" />
  <sodipodi:namedview
     id="namedview4"
     pagecolor="#ffffff"
     bordercolor="#000000"
     borderopacity="0.25"
     inkscape:showpageshadow="2"
     inkscape:pageopacity="0.0"
     inkscape:pagecheckerboard="0"
     inkscape:deskcolor="#d1d1d1" />
  <g
     id="g8"
     inkscape:groupmode="layer"
     inkscape:label="ink_ext_XXXXXX"
     transform="matrix(1.3333333,0,0,-1.3333333,0,6666.6667)">
    <g
       id="g10"
       transform="scale(0.1)">
      <path
         d="M 0,0 H 50000 V 50000 H 0 Z"
         style="fill:#ffffff;fill-opacity:1;fill-rule:nonzero;stroke:none"
         id="path12" />
      <path
         d="m 41511.6,10836.2 c 0,-543.8 -3574.7,-984.6 -7984.3,-984.6 -4409.6,0 -7984.2,440.8 -7984.2,984.6 0,543.8 3574.6,984.6 7984.2,984.6 4409.6,0 7984.3,-440.8 7984.3,-984.6"
         style="fill:#ebebe8;fill-opacity:1;fill-rule:nonzero;stroke:none"
         id="path14" />
      <path
         d="m 4999.99,12626.3 c 0,0 12227.51,676 18921.71,5785.8 7687.1,5867.8 19553.8,12936.3 20609.2,5758.2 1055.4,-7178.2 0,-11765.6 0,-11765.6 l -39530.91,221.6"
         style="fill:#feeff3;fill-opacity:1;fill-rule:nonzero;stroke:none"
         id="path16" />
      <path
         d="m 26022,22663.2 c 0,-359.8 -291.7,-651.5 -651.5,-651.5 H 9708.77 c -359.84,0 -651.55,291.7 -651.55,651.5 V 34932 c 0,359.8 291.71,651.5 651.55,651.5 H 25370.5 c 359.8,0 651.5,-291.7 651.5,-651.5 V 22663.2"
         style="fill:#ffffff;fill-opacity:1;fill-rule:nonzero;stroke:none"
         id="path18" />
      <path
         d="M 25370.5,35583.5 H 9708.77 c -359.84,0 -651.55,-291.7 -651.55,-651.5 V 22663.2 c 0,-359.8 291.71,-651.5 651.55,-651.5 H 25370.5 c 359.8,0 651.5,291.7 651.5,651.5 V 34932 c 0,359.8 -291.7,651.5 -651.5,651.5 m 0,-141.8 c 281,0 509.7,-228.7 509.7,-509.7 V 22663.2 c 0,-281 -228.7,-509.7 -509.7,-509.7 H 9708.77 c -281.06,0 -509.72,228.7 -509.72,509.7 V 34932 c 0,281 228.66,509.7 509.72,509.7 H 25370.5"
         style="fill:#b8dfe8;fill-opacity:1;fill-rule:nonzero;stroke:none"
         id="path20" />
      <path
         d="M 25370.5,35583.5 H 9708.77 c -359.84,0 -651.55,-291.7 -651.55,-651.5 V 33739.5 H 26022 V 34932 c 0,359.8 -291.7,651.5 -651.5,651.5"
         style="fill:#b8dfe8;fill-opacity:1;fill-rule:nonzero;stroke:none"
         id="path22" />
      <path
         d="m 22283.9,34204.8 h -7177.4 c -231.4,0 -418.9,187.6 -418.9,418.9 0,231.4 187.5,418.9 418.9,418.9 h 7177.4 c 231.4,0 418.9,-187.5 418.9,-418.9 0,-231.3 -187.5,-418.9 -418.9,-418.9"
         style="fill:#ffffff;fill-opacity:1;fill-rule:nonzero;stroke:none"
         id="path24" />
      <path
         d="m 10437.9,34657.4 c 21.3,-169.1 -120.9,-311.4 -290,-290 -115.2,14.5 -208.23,107.5 -222.73,222.7 -21.28,169.1 120.83,311.2 289.93,290 115.2,-14.5 208.2,-107.5 222.8,-222.7"
         style="fill:#294784;fill-opacity:1;fill-rule:nonzero;stroke:none"
         id="path26" />
      <path
         d="m 11262.2,34657.4 c 21.3,-169.1 -120.9,-311.4 -290,-290 -115.1,14.5 -208.2,107.5 -222.7,222.7 -21.3,169.1 120.9,311.2 289.9,290 115.2,-14.5 208.3,-107.6 222.8,-222.7"
         style="fill:#7daecb;fill-opacity:1;fill-rule:nonzero;stroke:none"
         id="path28" />
      <path
         d="m 12086.5,34657.4 c 21.4,-169.1 -120.8,-311.4 -289.9,-290 -115.2,14.5 -208.3,107.5 -222.8,222.7 -21.3,169.1 120.9,311.3 290,290 115.2,-14.5 208.2,-107.6 222.7,-222.7"
         style="fill:#294784;fill-opacity:1;fill-rule:nonzero;stroke:none"
         id="path30" />
      <path
         d="M 24786.1,22226.9 H 10209.4 V 33739.5 H 24786.1 V 22226.9"
         style="fill:#17223d;fill-opacity:1;fill-rule:nonzero;stroke:none"
         id="path32" />
      <path
         d="m 11481.2,32646.6 c -18.6,0 -37.3,4.2 -51.6,12.7 l -331,197.4 c -28.5,16.9 -28.5,44.5 0,61.5 l 331.4,197.5 c 28.5,17 74.7,17 103.2,0 28.5,-17 28.5,-44.5 0,-61.5 l -279.8,-166.8 279.4,-166.6 c 28.5,-17 28.5,-44.5 0,-61.5 -14.2,-8.5 -32.9,-12.7 -51.6,-12.7"
         style="fill:#cadcd7;fill-opacity:1;fill-rule:nonzero;stroke:none"
         id="path34" />
      <path
         d="m 12314.8,32646.6 c -18.7,0 -37.3,4.2 -51.6,12.7 -28.5,17 -28.5,44.5 0,61.5 l 279.5,166.6 -279.8,166.8 c -28.6,17 -28.6,44.5 0,61.5 28.4,17 74.6,17 103.1,0 l 331.4,-197.5 c 28.5,-17 28.5,-44.6 0,-61.5 l -331,-197.4 c -14.3,-8.5 -32.9,-12.7 -51.6,-12.7"
         style="fill:#cadcd7;fill-opacity:1;fill-rule:nonzero;stroke:none"
         id="path36" />
      <path
         d="m 11757.8,32612.7 c -8.3,0 -16.8,0.8 -25.1,2.6 -37.8,8.3 -57.2,33.3 -43.4,55.8 l 262.9,428.8 c 13.9,22.6 55.8,34.1 93.6,26 37.9,-8.3 57.3,-33.3 43.5,-55.8 l -262.9,-428.8 c -10.9,-17.7 -38.8,-28.6 -68.6,-28.6"
         style="fill:#cadcd7;fill-opacity:1;fill-rule:nonzero;stroke:none"
         id="path38" />
      <path
         d="m 13091.4,32652.7 c 0,-30.8 -41.9,-55.7 -93.5,-55.7 -51.6,0 -93.5,24.9 -93.5,55.7 0,30.8 41.9,55.7 93.5,55.7 51.6,0 93.5,-24.9 93.5,-55.7"
         style="fill:#cadcd7;fill-opacity:1;fill-rule:nonzero;stroke:none"
         id="path40" />
      <path
         d="m 13478.2,32652.7 c 0,-30.8 -41.8,-55.7 -93.4,-55.7 -51.6,0 -93.5,24.9 -93.5,55.7 0,30.8 41.9,55.7 93.5,55.7 51.6,0 93.4,-24.9 93.4,-55.7"
         style="fill:#cadcd7;fill-opacity:1;fill-rule:nonzero;stroke:none"
         id="path42" />
      <path
         d="m 13865.1,32652.7 c 0,-30.8 -41.8,-55.7 -93.4,-55.7 -51.7,0 -93.5,24.9 -93.5,55.7 0,30.8 41.8,55.7 93.5,55.7 51.6,0 93.4,-24.9 93.4,-55.7"
         style="fill:#cadcd7;fill-opacity:1;fill-rule:nonzero;stroke:none"
         id="path44" />
      <path
         d="m 21277.1,32207.6 h -9961.2 c -40.3,0 -72.9,19.5 -72.9,43.5 0,24.1 32.6,43.5 72.9,43.5 h 9961.2 c 40.4,0 73,-19.4 73,-43.5 0,-24 -32.6,-43.5 -73,-43.5"
         style="fill:#cadcd7;fill-opacity:1;fill-rule:nonzero;stroke:none"
         id="path46" />
      <path
         d="m 22648.9,32207.6 h -767.6 c -40.4,0 -73,19.5 -73,43.5 0,24.1 32.6,43.5 73,43.5 h 767.6 c 40.3,0 72.9,-19.4 72.9,-43.5 0,-24 -32.6,-43.5 -72.9,-43.5"
         style="fill:#cadcd7;fill-opacity:1;fill-rule:nonzero;stroke:none"
         id="path48" />
      <path
         d="M 24059.8,32207.6 H 23080 c -40.3,0 -73,19.5 -73,43.5 0,24.1 32.7,43.5 73,43.5 h 979.8 c 40.3,0 72.9,-19.4 72.9,-43.5 0,-24 -32.6,-43.5 -72.9,-43.5"
         style="fill:#cadcd7;fill-opacity:1;fill-rule:nonzero;stroke:none"
         id="path50" />
      <path
         d="m 17547.7,31740.3 h -6231.8 c -40.3,0 -72.9,19.5 -72.9,43.5 0,24.1 32.6,43.5 72.9,43.5 h 6231.8 c 40.3,0 73,-19.4 73,-43.5 0,-24 -32.7,-43.5 -73,-43.5"
         style="fill:#61c1ce;fill-opacity:1;fill-rule:nonzero;stroke:none"
         id="path52" />
      <path
         d="m 19591.9,31740.3 h -1117 c -40.3,0 -73,19.5 -73,43.5 0,24.1 32.7,43.5 73,43.5 h 1117 c 40.3,0 73,-19.4 73,-43.5 0,-24 -32.7,-43.5 -73,-43.5"
         style="fill:#61c1ce;fill-opacity:1;fill-rule:nonzero;stroke:none"
         id="path54" />
      <path
         d="m 19591.9,31471.6 h -3032.4 c -40.3,0 -72.9,19.5 -72.9,43.5 0,24.1 32.6,43.5 72.9,43.5 h 3032.4 c 40.3,0 73,-19.4 73,-43.5 0,-24 -32.7,-43.5 -73,-43.5"
         style="fill:#61c1ce;fill-opacity:1;fill-rule:nonzero;stroke:none"
         id="path56" />
      <path
         d="m 16142.9,31471.6 h -611 c -40.4,0 -73,19.5 -73,43.5 0,24.1 32.6,43.5 73,43.5 h 611 c 40.3,0 73,-19.4 73,-43.5 0,-24 -32.7,-43.5 -73,-43.5"
         style="fill:#61c1ce;fill-opacity:1;fill-rule:nonzero;stroke:none"
         id="path58" />
      <path
         d="m 15046.4,31471.6 h -611 c -40.4,0 -73,19.5 -73,43.5 0,24.1 32.6,43.5 73,43.5 h 611 c 40.3,0 73,-19.4 73,-43.5 0,-24 -32.7,-43.5 -73,-43.5"
         style="fill:#61c1ce;fill-opacity:1;fill-rule:nonzero;stroke:none"
         id="path60" />
      <path
         d="m 13949.9,31471.6 h -611.1 c -40.3,0 -72.9,19.5 -72.9,43.5 0,24.1 32.6,43.5 72.9,43.5 h 611.1 c 40.4,0 73,-19.4 73,-43.5 0,-24 -32.6,-43.5 -73,-43.5"
         style="fill:#61c1ce;fill-opacity:1;fill-rule:nonzero;stroke:none"
         id="path62" />
      <path
         d="m 12853.5,31471.6 h -611.2 c -40.3,0 -72.9,19.5 -72.9,43.5 0,24.1 32.6,43.5 72.9,43.5 h 611.2 c 40.3,0 72.9,-19.4 72.9,-43.5 0,-24 -32.6,-43.5 -72.9,-43.5"
         style="fill:#61c1ce;fill-opacity:1;fill-rule:nonzero;stroke:none"
         id="path64" />
      <path
         d="m 21692.3,31144.9 h -9450 c -40.3,0 -72.9,19.5 -72.9,43.5 0,24.1 32.6,43.5 72.9,43.5 h 9450 c 40.3,0 73,-19.4 73,-43.5 0,-24 -32.7,-43.5 -73,-43.5"
         style="fill:#ef343c;fill-opacity:1;fill-rule:nonzero;stroke:none"
         id="path66" />
      <path
         d="m 11536.4,31471.6 h -220.5 c -40.3,0 -72.9,19.5 -72.9,43.5 0,24.1 32.6,43.5 72.9,43.5 h 220.5 c 40.4,0 73,-19.4 73,-43.5 0,-24 -32.6,-43.5 -73,-43.5"
         style="fill:#61c1ce;fill-opacity:1;fill-rule:nonzero;stroke:none"
         id="path68" />
      <path
         d="m 11536.4,31144.9 h -220.5 c -40.3,0 -72.9,19.5 -72.9,43.5 0,24.1 32.6,43.5 72.9,43.5 h 220.5 c 40.4,0 73,-19.4 73,-43.5 0,-24 -32.6,-43.5 -73,-43.5"
         style="fill:#61c1ce;fill-opacity:1;fill-rule:nonzero;stroke:none"
         id="path70" />
      <path
         d="m 11536.4,30818.2 h -220.5 c -40.3,0 -72.9,19.5 -72.9,43.5 0,24 32.6,43.5 72.9,43.5 h 220.5 c 40.4,0 73,-19.5 73,-43.5 0,-24 -32.6,-43.5 -73,-43.5"
         style="fill:#61c1ce;fill-opacity:1;fill-rule:nonzero;stroke:none"
         id="path72" />
      <path
         d="m 11536.4,30491.5 h -220.5 c -40.3,0 -72.9,19.5 -72.9,43.5 0,24 32.6,43.5 72.9,43.5 h 220.5 c 40.4,0 73,-19.5 73,-43.5 0,-24 -32.6,-43.5 -73,-43.5"
         style="fill:#61c1ce;fill-opacity:1;fill-rule:nonzero;stroke:none"
         id="path74" />
      <path
         d="M 23569.9,31144.9 H 22265 c -40.3,0 -72.9,19.5 -72.9,43.5 0,24.1 32.6,43.5 72.9,43.5 h 1304.9 c 40.3,0 72.9,-19.4 72.9,-43.5 0,-24 -32.6,-43.5 -72.9,-43.5"
         style="fill:#ef343c;fill-opacity:1;fill-rule:nonzero;stroke:none"
         id="path76" />
      <path
         d="m 14834.5,30818.2 h -2614.8 c -40.3,0 -72.9,19.5 -72.9,43.5 0,24 32.6,43.5 72.9,43.5 h 2614.8 c 40.3,0 72.9,-19.5 72.9,-43.5 0,-24 -32.6,-43.5 -72.9,-43.5"
         style="fill:#ef343c;fill-opacity:1;fill-rule:nonzero;stroke:none"
         id="path78" />
      <path
         d="m 14834.5,30483.5 h -2614.8 c -40.3,0 -72.9,19.5 -72.9,43.5 0,24 32.6,43.5 72.9,43.5 h 2614.8 c 40.3,0 72.9,-19.5 72.9,-43.5 0,-24 -32.6,-43.5 -72.9,-43.5"
         style="fill:#ef343c;fill-opacity:1;fill-rule:nonzero;stroke:none"
         id="path80" />
      <path
         d="m 14834.5,30148.8 h -2614.8 c -40.3,0 -72.9,19.5 -72.9,43.5 0,24 32.6,43.5 72.9,43.5 h 2614.8 c 40.3,0 72.9,-19.5 72.9,-43.5 0,-24 -32.6,-43.5 -72.9,-43.5"
         style="fill:#ef343c;fill-opacity:1;fill-rule:nonzero;stroke:none"
         id="path82" />
      <path
         d="m 14834.5,29814.1 h -2614.8 c -40.3,0 -72.9,19.4 -72.9,43.5 0,24 32.6,43.5 72.9,43.5 h 2614.8 c 40.3,0 72.9,-19.5 72.9,-43.5 0,-24.1 -32.6,-43.5 -72.9,-43.5"
         style="fill:#ef343c;fill-opacity:1;fill-rule:nonzero;stroke:none"
         id="path84" />
      <path
         d="m 21881.3,29814.1 h -5321.8 c -40.3,0 -72.9,19.4 -72.9,43.5 0,24 32.6,43.5 72.9,43.5 h 5321.8 c 40.3,0 72.9,-19.5 72.9,-43.5 0,-24.1 -32.6,-43.5 -72.9,-43.5"
         style="fill:#fac021;fill-opacity:1;fill-rule:nonzero;stroke:none"
         id="path86" />
      <path
         d="m 21881.3,30148.8 h -2166.8 c -40.3,0 -72.9,19.5 -72.9,43.5 0,24 32.6,43.5 72.9,43.5 h 2166.8 c 40.3,0 72.9,-19.5 72.9,-43.5 0,-24 -32.6,-43.5 -72.9,-43.5"
         style="fill:#fac021;fill-opacity:1;fill-rule:nonzero;stroke:none"
         id="path88" />
      <path
         d="m 21881.3,30491.5 h -860.2 c -40.4,0 -73,19.5 -73,43.5 0,24 32.6,43.5 73,43.5 h 860.2 c 40.3,0 72.9,-19.5 72.9,-43.5 0,-24 -32.6,-43.5 -72.9,-43.5"
         style="fill:#fac021;fill-opacity:1;fill-rule:nonzero;stroke:none"
         id="path90" />
      <path
         d="M 21352.3,29204.5 H 11391 c -40.3,0 -72.9,19.5 -72.9,43.5 0,24 32.6,43.5 72.9,43.5 h 9961.3 c 40.3,0 72.9,-19.5 72.9,-43.5 0,-24 -32.6,-43.5 -72.9,-43.5"
         style="fill:#cadcd7;fill-opacity:1;fill-rule:nonzero;stroke:none"
         id="path92" />
      <path
         d="m 22724,29204.5 h -767.6 c -40.3,0 -73,19.5 -73,43.5 0,24 32.7,43.5 73,43.5 h 767.6 c 40.3,0 73,-19.5 73,-43.5 0,-24 -32.7,-43.5 -73,-43.5"
         style="fill:#cadcd7;fill-opacity:1;fill-rule:nonzero;stroke:none"
         id="path94" />
      <path
         d="m 24134.9,29204.5 h -979.8 c -40.3,0 -72.9,19.5 -72.9,43.5 0,24 32.6,43.5 72.9,43.5 h 979.8 c 40.3,0 73,-19.5 73,-43.5 0,-24 -32.7,-43.5 -73,-43.5"
         style="fill:#cadcd7;fill-opacity:1;fill-rule:nonzero;stroke:none"
         id="path96" />
      <path
         d="M 17622.8,28737.2 H 11391 c -40.3,0 -72.9,19.5 -72.9,43.5 0,24 32.6,43.5 72.9,43.5 h 6231.8 c 40.4,0 73,-19.5 73,-43.5 0,-24 -32.6,-43.5 -73,-43.5"
         style="fill:#61c1ce;fill-opacity:1;fill-rule:nonzero;stroke:none"
         id="path98" />
      <path
         d="m 19667,28737.2 h -1117 c -40.3,0 -72.9,19.5 -72.9,43.5 0,24 32.6,43.5 72.9,43.5 h 1117 c 40.4,0 73,-19.5 73,-43.5 0,-24 -32.6,-43.5 -73,-43.5"
         style="fill:#61c1ce;fill-opacity:1;fill-rule:nonzero;stroke:none"
         id="path100" />
      <path
         d="m 19667,28468.5 h -3032.4 c -40.3,0 -72.9,19.5 -72.9,43.5 0,24 32.6,43.5 72.9,43.5 H 19667 c 40.4,0 73,-19.5 73,-43.5 0,-24 -32.6,-43.5 -73,-43.5"
         style="fill:#61c1ce;fill-opacity:1;fill-rule:nonzero;stroke:none"
         id="path102" />
      <path
         d="m 16218,28468.5 h -611 c -40.3,0 -73,19.5 -73,43.5 0,24 32.7,43.5 73,43.5 h 611 c 40.4,0 73,-19.5 73,-43.5 0,-24 -32.6,-43.5 -73,-43.5"
         style="fill:#61c1ce;fill-opacity:1;fill-rule:nonzero;stroke:none"
         id="path104" />
      <path
         d="m 15121.6,28468.5 h -611.1 c -40.3,0 -73,19.5 -73,43.5 0,24 32.7,43.5 73,43.5 h 611.1 c 40.3,0 72.9,-19.5 72.9,-43.5 0,-24 -32.6,-43.5 -72.9,-43.5"
         style="fill:#61c1ce;fill-opacity:1;fill-rule:nonzero;stroke:none"
         id="path106" />
      <path
         d="m 14025.1,28468.5 h -611.2 c -40.3,0 -72.9,19.5 -72.9,43.5 0,24 32.6,43.5 72.9,43.5 h 611.2 c 40.3,0 72.9,-19.5 72.9,-43.5 0,-24 -32.6,-43.5 -72.9,-43.5"
         style="fill:#61c1ce;fill-opacity:1;fill-rule:nonzero;stroke:none"
         id="path108" />
      <path
         d="m 12928.6,28468.5 h -611.1 c -40.4,0 -73,19.5 -73,43.5 0,24 32.6,43.5 73,43.5 h 611.1 c 40.3,0 72.9,-19.5 72.9,-43.5 0,-24 -32.6,-43.5 -72.9,-43.5"
         style="fill:#61c1ce;fill-opacity:1;fill-rule:nonzero;stroke:none"
         id="path110" />
      <path
         d="m 21767.4,28141.8 h -9449.9 c -40.4,0 -73,19.5 -73,43.5 0,24 32.6,43.5 73,43.5 h 9449.9 c 40.4,0 73,-19.5 73,-43.5 0,-24 -32.6,-43.5 -73,-43.5"
         style="fill:#ef343c;fill-opacity:1;fill-rule:nonzero;stroke:none"
         id="path112" />
      <path
         d="M 11611.6,28468.5 H 11391 c -40.3,0 -72.9,19.5 -72.9,43.5 0,24 32.6,43.5 72.9,43.5 h 220.6 c 40.3,0 72.9,-19.5 72.9,-43.5 0,-24 -32.6,-43.5 -72.9,-43.5"
         style="fill:#61c1ce;fill-opacity:1;fill-rule:nonzero;stroke:none"
         id="path114" />
      <path
         d="M 11611.6,28141.8 H 11391 c -40.3,0 -72.9,19.5 -72.9,43.5 0,24 32.6,43.5 72.9,43.5 h 220.6 c 40.3,0 72.9,-19.5 72.9,-43.5 0,-24 -32.6,-43.5 -72.9,-43.5"
         style="fill:#61c1ce;fill-opacity:1;fill-rule:nonzero;stroke:none"
         id="path116" />
      <path
         d="M 11611.6,27815.1 H 11391 c -40.3,0 -72.9,19.5 -72.9,43.5 0,24 32.6,43.5 72.9,43.5 h 220.6 c 40.3,0 72.9,-19.5 72.9,-43.5 0,-24 -32.6,-43.5 -72.9,-43.5"
         style="fill:#61c1ce;fill-opacity:1;fill-rule:nonzero;stroke:none"
         id="path118" />
      <path
         d="M 11611.6,27488.4 H 11391 c -40.3,0 -72.9,19.5 -72.9,43.5 0,24 32.6,43.5 72.9,43.5 h 220.6 c 40.3,0 72.9,-19.5 72.9,-43.5 0,-24 -32.6,-43.5 -72.9,-43.5"
         style="fill:#61c1ce;fill-opacity:1;fill-rule:nonzero;stroke:none"
         id="path120" />
      <path
         d="m 23645,28141.8 h -1304.8 c -40.4,0 -73,19.5 -73,43.5 0,24 32.6,43.5 73,43.5 H 23645 c 40.3,0 72.9,-19.5 72.9,-43.5 0,-24 -32.6,-43.5 -72.9,-43.5"
         style="fill:#ef343c;fill-opacity:1;fill-rule:nonzero;stroke:none"
         id="path122" />
      <path
         d="m 14909.6,27815.1 h -2614.7 c -40.4,0 -73,19.5 -73,43.5 0,24 32.6,43.5 73,43.5 h 2614.7 c 40.3,0 72.9,-19.5 72.9,-43.5 0,-24 -32.6,-43.5 -72.9,-43.5"
         style="fill:#ef343c;fill-opacity:1;fill-rule:nonzero;stroke:none"
         id="path124" />
      <path
         d="m 14909.6,27480.4 h -2614.7 c -40.4,0 -73,19.4 -73,43.5 0,24 32.6,43.5 73,43.5 h 2614.7 c 40.3,0 72.9,-19.5 72.9,-43.5 0,-24.1 -32.6,-43.5 -72.9,-43.5"
         style="fill:#ef343c;fill-opacity:1;fill-rule:nonzero;stroke:none"
         id="path126" />
      <path
         d="m 14909.6,27145.6 h -2614.7 c -40.4,0 -73,19.5 -73,43.5 0,24.1 32.6,43.5 73,43.5 h 2614.7 c 40.3,0 72.9,-19.4 72.9,-43.5 0,-24 -32.6,-43.5 -72.9,-43.5"
         style="fill:#ef343c;fill-opacity:1;fill-rule:nonzero;stroke:none"
         id="path128" />
      <path
         d="m 14909.6,26810.9 h -2614.7 c -40.4,0 -73,19.5 -73,43.5 0,24.1 32.6,43.5 73,43.5 h 2614.7 c 40.3,0 72.9,-19.4 72.9,-43.5 0,-24 -32.6,-43.5 -72.9,-43.5"
         style="fill:#ef343c;fill-opacity:1;fill-rule:nonzero;stroke:none"
         id="path130" />
      <path
         d="m 21956.4,26810.9 h -5321.8 c -40.3,0 -72.9,19.5 -72.9,43.5 0,24.1 32.6,43.5 72.9,43.5 h 5321.8 c 40.3,0 73,-19.4 73,-43.5 0,-24 -32.7,-43.5 -73,-43.5"
         style="fill:#fac021;fill-opacity:1;fill-rule:nonzero;stroke:none"
         id="path132" />
      <path
         d="m 21956.4,27145.6 h -2166.8 c -40.3,0 -72.9,19.5 -72.9,43.5 0,24.1 32.6,43.5 72.9,43.5 h 2166.8 c 40.3,0 73,-19.4 73,-43.5 0,-24 -32.7,-43.5 -73,-43.5"
         style="fill:#fac021;fill-opacity:1;fill-rule:nonzero;stroke:none"
         id="path134" />
      <path
         d="m 21956.4,27488.4 h -860.2 c -40.4,0 -73,19.5 -73,43.5 0,24 32.6,43.5 73,43.5 h 860.2 c 40.3,0 73,-19.5 73,-43.5 0,-24 -32.7,-43.5 -73,-43.5"
         style="fill:#fac021;fill-opacity:1;fill-rule:nonzero;stroke:none"
         id="path136" />
      <path
         d="m 29824.1,13195 -346.8,-1034.8 904.3,-320.7 366,1504.2 -923.5,-148.7"
         style="fill:#fbc4c9;fill-opacity:1;fill-rule:nonzero;stroke:none"
         id="path138" />
      <path
         d="M 24387.1,22511.4 H 41043 c 124.4,0 225.3,-181.9 225.3,-406.3 v -266.8 c 0,-224.4 -100.9,-406.3 -225.3,-406.3 H 24387.1 c -124.4,0 -225.3,181.9 -225.3,406.3 v 266.8 c 0,224.4 100.9,406.3 225.3,406.3"
         style="fill:#fac021;fill-opacity:1;fill-rule:nonzero;stroke:none"
         id="path140" />
      <path
         d="M 41043,21432 H 24387.1 c -124.4,0 -225.3,181.9 -225.3,406.3 v 235.7 c 0,-224.4 100.9,-406.3 225.3,-406.3 H 41043 c 124.4,0 225.3,181.9 225.3,406.3 v -235.7 c 0,-224.4 -100.9,-406.3 -225.3,-406.3"
         style="fill:#e05b1c;fill-opacity:1;fill-rule:nonzero;stroke:none"
         id="path142" />
      <path
         d="m 26760.3,20855.1 -402.5,-9396.3 h -178 V 21432 h 605.2 l -24.7,-576.9"
         style="fill:#17223d;fill-opacity:1;fill-rule:nonzero;stroke:none"
         id="path144" />
      <path
         d="M 39522.6,21432 V 11458.8 H 39347 l -421.5,9973.2 h 597.1"
         style="fill:#17223d;fill-opacity:1;fill-rule:nonzero;stroke:none"
         id="path146" />
      <path
         d="m 37492.6,22511.4 h -2687.4 l 201.7,208.6 c 27.3,28.1 63.6,45.9 102.6,50.1 l 1039.4,112.4 -796.7,1546 197.3,1185.4 h 965.1 l 442.5,-2732.7 370.3,-93.8 c 58.1,-14.8 104,-59.3 120.3,-117 l 44.9,-159"
         style="fill:#483d34;fill-opacity:1;fill-rule:nonzero;stroke:none"
         id="path148" />
      <path
         d="m 36327.2,24436.3 301.3,-1546 -479.6,-7.8 -796.7,1546 975,7.8"
         style="fill:#695e50;fill-opacity:1;fill-rule:nonzero;stroke:none"
         id="path150" />
      <path
         d="m 33082.8,24087.6 h 4933.5 c 153.4,0 288.7,123.3 302.2,275.5 l 331.7,3739.9 c 13.5,152.1 -99.9,275.4 -253.3,275.4 h -4933.5 c -153.4,0 -288.7,-123.3 -302.2,-275.4 l -331.7,-3739.9 c -13.5,-152.2 99.9,-275.5 253.3,-275.5"
         style="fill:#695e50;fill-opacity:1;fill-rule:nonzero;stroke:none"
         id="path152" />
      <path
         d="M 32892.4,24087.6 H 37826 c 153.4,0 288.6,123.3 302.1,275.5 l 331.7,3739.9 c 13.5,152.1 -99.9,275.4 -253.3,275.4 H 33273 c -153.4,0 -288.7,-123.3 -302.2,-275.4 l -331.7,-3739.9 c -13.5,-152.2 100,-275.5 253.3,-275.5"
         style="fill:#483d34;fill-opacity:1;fill-rule:nonzero;stroke:none"
         id="path154" />
      <path
         d="m 37981,24281.3 h -5211.9 l 348.8,3903.4 h 5212 L 37981,24281.3"
         style="fill:#141518;fill-opacity:1;fill-rule:nonzero;stroke:none"
         id="path156" />
      <path
         d="m 36613.6,27588.8 h -2831.9 c -11.5,0 -20.8,19.5 -20.8,43.5 0,24 9.3,43.5 20.8,43.5 h 2831.9 c 11.4,0 20.7,-19.5 20.7,-43.5 0,-24 -9.3,-43.5 -20.7,-43.5"
         style="fill:#cadcd7;fill-opacity:1;fill-rule:nonzero;stroke:none"
         id="path158" />
      <path
         d="m 37003.5,27588.8 h -218.2 c -11.5,0 -20.7,19.5 -20.7,43.5 0,24 9.2,43.5 20.7,43.5 h 218.2 c 11.5,0 20.8,-19.5 20.8,-43.5 0,-24 -9.3,-43.5 -20.8,-43.5"
         style="fill:#cadcd7;fill-opacity:1;fill-rule:nonzero;stroke:none"
         id="path160" />
      <path
         d="m 37404.6,27588.8 h -278.5 c -11.5,0 -20.7,19.5 -20.7,43.5 0,24 9.2,43.5 20.7,43.5 h 278.5 c 11.5,0 20.8,-19.5 20.8,-43.5 0,-24 -9.3,-43.5 -20.8,-43.5"
         style="fill:#cadcd7;fill-opacity:1;fill-rule:nonzero;stroke:none"
         id="path162" />
      <path
         d="m 35553.3,27121.5 h -1771.6 c -11.5,0 -20.8,19.5 -20.8,43.5 0,24 9.3,43.5 20.8,43.5 h 1771.6 c 11.5,0 20.8,-19.5 20.8,-43.5 0,-24 -9.3,-43.5 -20.8,-43.5"
         style="fill:#61c1ce;fill-opacity:1;fill-rule:nonzero;stroke:none"
         id="path164" />
      <path
         d="m 36134.5,27121.5 h -317.6 c -11.5,0 -20.7,19.5 -20.7,43.5 0,24 9.2,43.5 20.7,43.5 h 317.6 c 11.4,0 20.7,-19.5 20.7,-43.5 0,-24 -9.3,-43.5 -20.7,-43.5"
         style="fill:#61c1ce;fill-opacity:1;fill-rule:nonzero;stroke:none"
         id="path166" />
      <path
         d="m 36134.5,26852.8 h -862.1 c -11.5,0 -20.8,19.5 -20.8,43.5 0,24 9.3,43.5 20.8,43.5 h 862.1 c 11.4,0 20.7,-19.5 20.7,-43.5 0,-24 -9.3,-43.5 -20.7,-43.5"
         style="fill:#61c1ce;fill-opacity:1;fill-rule:nonzero;stroke:none"
         id="path168" />
      <path
         d="m 35153.9,26852.8 h -173.7 c -11.4,0 -20.7,19.5 -20.7,43.5 0,24 9.3,43.5 20.7,43.5 h 173.7 c 11.5,0 20.8,-19.5 20.8,-43.5 0,-24 -9.3,-43.5 -20.8,-43.5"
         style="fill:#61c1ce;fill-opacity:1;fill-rule:nonzero;stroke:none"
         id="path170" />
      <path
         d="m 34842.2,26852.8 h -173.7 c -11.5,0 -20.7,19.5 -20.7,43.5 0,24 9.2,43.5 20.7,43.5 h 173.7 c 11.5,0 20.8,-19.5 20.8,-43.5 0,-24 -9.3,-43.5 -20.8,-43.5"
         style="fill:#61c1ce;fill-opacity:1;fill-rule:nonzero;stroke:none"
         id="path172" />
      <path
         d="m 34530.5,26852.8 h -173.7 c -11.5,0 -20.8,19.5 -20.8,43.5 0,24 9.3,43.5 20.8,43.5 h 173.7 c 11.5,0 20.7,-19.5 20.7,-43.5 0,-24 -9.2,-43.5 -20.7,-43.5"
         style="fill:#61c1ce;fill-opacity:1;fill-rule:nonzero;stroke:none"
         id="path174" />
      <path
         d="M 34218.8,26852.8 H 34045 c -11.4,0 -20.7,19.5 -20.7,43.5 0,24 9.3,43.5 20.7,43.5 h 173.8 c 11.4,0 20.7,-19.5 20.7,-43.5 0,-24 -9.3,-43.5 -20.7,-43.5"
         style="fill:#61c1ce;fill-opacity:1;fill-rule:nonzero;stroke:none"
         id="path176" />
      <path
         d="M 36731.6,26526.1 H 34045 c -11.4,0 -20.7,19.5 -20.7,43.5 0,24 9.3,43.5 20.7,43.5 h 2686.6 c 11.5,0 20.7,-19.5 20.7,-43.5 0,-24 -9.2,-43.5 -20.7,-43.5"
         style="fill:#ef343c;fill-opacity:1;fill-rule:nonzero;stroke:none"
         id="path178" />
      <path
         d="m 33844.4,26852.8 h -62.7 c -11.5,0 -20.8,19.5 -20.8,43.5 0,24 9.3,43.5 20.8,43.5 h 62.7 c 11.4,0 20.7,-19.5 20.7,-43.5 0,-24 -9.3,-43.5 -20.7,-43.5"
         style="fill:#61c1ce;fill-opacity:1;fill-rule:nonzero;stroke:none"
         id="path180" />
      <path
         d="m 33844.4,26526.1 h -62.7 c -11.5,0 -20.8,19.5 -20.8,43.5 0,24 9.3,43.5 20.8,43.5 h 62.7 c 11.4,0 20.7,-19.5 20.7,-43.5 0,-24 -9.3,-43.5 -20.7,-43.5"
         style="fill:#61c1ce;fill-opacity:1;fill-rule:nonzero;stroke:none"
         id="path182" />
      <path
         d="m 33844.4,26199.4 h -62.7 c -11.5,0 -20.8,19.5 -20.8,43.5 0,24 9.3,43.5 20.8,43.5 h 62.7 c 11.4,0 20.7,-19.5 20.7,-43.5 0,-24 -9.3,-43.5 -20.7,-43.5"
         style="fill:#61c1ce;fill-opacity:1;fill-rule:nonzero;stroke:none"
         id="path184" />
      <path
         d="m 33844.4,25872.7 h -62.7 c -11.5,0 -20.8,19.5 -20.8,43.5 0,24 9.3,43.5 20.8,43.5 h 62.7 c 11.4,0 20.7,-19.5 20.7,-43.5 0,-24 -9.3,-43.5 -20.7,-43.5"
         style="fill:#61c1ce;fill-opacity:1;fill-rule:nonzero;stroke:none"
         id="path186" />
      <path
         d="m 37265.4,26526.1 h -371 c -11.5,0 -20.7,19.5 -20.7,43.5 0,24 9.2,43.5 20.7,43.5 h 371 c 11.4,0 20.7,-19.5 20.7,-43.5 0,-24 -9.3,-43.5 -20.7,-43.5"
         style="fill:#ef343c;fill-opacity:1;fill-rule:nonzero;stroke:none"
         id="path188" />
      <path
         d="m 34782,26199.4 h -743.4 c -11.4,0 -20.7,19.5 -20.7,43.5 0,24 9.3,43.5 20.7,43.5 h 743.4 c 11.4,0 20.7,-19.5 20.7,-43.5 0,-24 -9.3,-43.5 -20.7,-43.5"
         style="fill:#ef343c;fill-opacity:1;fill-rule:nonzero;stroke:none"
         id="path190" />
      <path
         d="m 34782,25864.7 h -743.4 c -11.4,0 -20.7,19.5 -20.7,43.5 0,24 9.3,43.5 20.7,43.5 h 743.4 c 11.4,0 20.7,-19.5 20.7,-43.5 0,-24 -9.3,-43.5 -20.7,-43.5"
         style="fill:#ef343c;fill-opacity:1;fill-rule:nonzero;stroke:none"
         id="path192" />
      <path
         d="m 34782,25530 h -743.4 c -11.4,0 -20.7,19.4 -20.7,43.5 0,24 9.3,43.5 20.7,43.5 h 743.4 c 11.4,0 20.7,-19.5 20.7,-43.5 0,-24.1 -9.3,-43.5 -20.7,-43.5"
         style="fill:#ef343c;fill-opacity:1;fill-rule:nonzero;stroke:none"
         id="path194" />
      <path
         d="m 34782,25195.3 h -743.4 c -11.4,0 -20.7,19.4 -20.7,43.4 0,24.1 9.3,43.5 20.7,43.5 h 743.4 c 11.4,0 20.7,-19.4 20.7,-43.5 0,-24 -9.3,-43.4 -20.7,-43.4"
         style="fill:#ef343c;fill-opacity:1;fill-rule:nonzero;stroke:none"
         id="path196" />
      <path
         d="m 36785.3,25195.3 h -1512.9 c -11.5,0 -20.8,19.4 -20.8,43.4 0,24.1 9.3,43.5 20.8,43.5 h 1512.9 c 11.5,0 20.8,-19.4 20.8,-43.5 0,-24 -9.3,-43.4 -20.8,-43.4"
         style="fill:#fac021;fill-opacity:1;fill-rule:nonzero;stroke:none"
         id="path198" />
      <path
         d="m 36785.3,25530 h -616 c -11.4,0 -20.7,19.4 -20.7,43.5 0,24 9.3,43.5 20.7,43.5 h 616 c 11.5,0 20.8,-19.5 20.8,-43.5 0,-24.1 -9.3,-43.5 -20.8,-43.5"
         style="fill:#fac021;fill-opacity:1;fill-rule:nonzero;stroke:none"
         id="path200" />
      <path
         d="m 36785.3,25872.7 h -244.5 c -11.5,0 -20.8,19.5 -20.8,43.5 0,24 9.3,43.5 20.8,43.5 h 244.5 c 11.5,0 20.8,-19.5 20.8,-43.5 0,-24 -9.3,-43.5 -20.8,-43.5"
         style="fill:#fac021;fill-opacity:1;fill-rule:nonzero;stroke:none"
         id="path202" />
      <path
         d="m 26579.3,22511.4 h 2687.4 L 29065,22720 c -27.2,28.1 -63.5,45.9 -102.5,50.1 l -1039.5,112.4 796.8,1546 -197.3,1185.4 h -965.1 l -442.6,-2732.7 -370.3,-93.8 c -58.1,-14.8 -103.9,-59.3 -120.2,-117 l -45,-159"
         style="fill:#483d34;fill-opacity:1;fill-rule:nonzero;stroke:none"
         id="path204" />
      <path
         d="m 27744.7,24436.3 -301.3,-1546 479.6,-7.8 796.8,1546 -975.1,7.8"
         style="fill:#695e50;fill-opacity:1;fill-rule:nonzero;stroke:none"
         id="path206" />
      <path
         d="m 30989.1,24087.6 h -4933.5 c -153.4,0 -288.7,123.3 -302.2,275.5 l -331.7,3739.9 c -13.4,152.1 100,275.4 253.4,275.4 h 4933.5 c 153.4,0 288.6,-123.3 302.1,-275.4 l 331.7,-3739.9 c 13.5,-152.2 -99.9,-275.5 -253.3,-275.5"
         style="fill:#695e50;fill-opacity:1;fill-rule:nonzero;stroke:none"
         id="path208" />
      <path
         d="M 31179.5,24087.6 H 26246 c -153.4,0 -288.7,123.3 -302.2,275.5 l -331.7,3739.9 c -13.5,152.1 99.9,275.4 253.3,275.4 H 30799 c 153.3,0 288.6,-123.3 302.1,-275.4 l 331.7,-3739.9 c 13.5,-152.2 -99.9,-275.5 -253.3,-275.5"
         style="fill:#483d34;fill-opacity:1;fill-rule:nonzero;stroke:none"
         id="path210" />
      <path
         d="m 26090.9,24281.3 h 5212 l -348.9,3903.4 h -5211.9 l 348.8,-3903.4"
         style="fill:#17223d;fill-opacity:1;fill-rule:nonzero;stroke:none"
         id="path212" />
      <path
         d="m 29635.8,27550 h -2831.9 c -11.5,0 -20.7,19.5 -20.7,43.5 0,24.1 9.2,43.5 20.7,43.5 h 2831.9 c 11.4,0 20.7,-19.4 20.7,-43.5 0,-24 -9.3,-43.5 -20.7,-43.5"
         style="fill:#cadcd7;fill-opacity:1;fill-rule:nonzero;stroke:none"
         id="path214" />
      <path
         d="m 30025.8,27550 h -218.3 c -11.4,0 -20.7,19.5 -20.7,43.5 0,24.1 9.3,43.5 20.7,43.5 h 218.3 c 11.4,0 20.7,-19.4 20.7,-43.5 0,-24 -9.3,-43.5 -20.7,-43.5"
         style="fill:#cadcd7;fill-opacity:1;fill-rule:nonzero;stroke:none"
         id="path216" />
      <path
         d="m 30426.9,27550 h -278.6 c -11.4,0 -20.7,19.5 -20.7,43.5 0,24.1 9.3,43.5 20.7,43.5 h 278.6 c 11.4,0 20.7,-19.4 20.7,-43.5 0,-24 -9.3,-43.5 -20.7,-43.5"
         style="fill:#cadcd7;fill-opacity:1;fill-rule:nonzero;stroke:none"
         id="path218" />
      <path
         d="m 28575.5,27082.7 h -1771.6 c -11.5,0 -20.7,19.5 -20.7,43.5 0,24.1 9.2,43.5 20.7,43.5 h 1771.6 c 11.5,0 20.8,-19.4 20.8,-43.5 0,-24 -9.3,-43.5 -20.8,-43.5"
         style="fill:#61c1ce;fill-opacity:1;fill-rule:nonzero;stroke:none"
         id="path220" />
      <path
         d="m 29156.7,27082.7 h -317.6 c -11.4,0 -20.7,19.5 -20.7,43.5 0,24.1 9.3,43.5 20.7,43.5 h 317.6 c 11.5,0 20.7,-19.4 20.7,-43.5 0,-24 -9.2,-43.5 -20.7,-43.5"
         style="fill:#61c1ce;fill-opacity:1;fill-rule:nonzero;stroke:none"
         id="path222" />
      <path
         d="m 29156.7,26814 h -862.1 c -11.5,0 -20.7,19.5 -20.7,43.5 0,24.1 9.2,43.5 20.7,43.5 h 862.1 c 11.5,0 20.7,-19.4 20.7,-43.5 0,-24 -9.2,-43.5 -20.7,-43.5"
         style="fill:#61c1ce;fill-opacity:1;fill-rule:nonzero;stroke:none"
         id="path224" />
      <path
         d="m 28176.2,26814 h -173.7 c -11.5,0 -20.8,19.5 -20.8,43.5 0,24.1 9.3,43.5 20.8,43.5 h 173.7 c 11.4,0 20.7,-19.4 20.7,-43.5 0,-24 -9.3,-43.5 -20.7,-43.5"
         style="fill:#61c1ce;fill-opacity:1;fill-rule:nonzero;stroke:none"
         id="path226" />
      <path
         d="m 27864.5,26814 h -173.8 c -11.4,0 -20.7,19.5 -20.7,43.5 0,24.1 9.3,43.5 20.7,43.5 h 173.8 c 11.4,0 20.7,-19.4 20.7,-43.5 0,-24 -9.3,-43.5 -20.7,-43.5"
         style="fill:#61c1ce;fill-opacity:1;fill-rule:nonzero;stroke:none"
         id="path228" />
      <path
         d="M 27552.7,26814 H 27379 c -11.5,0 -20.7,19.5 -20.7,43.5 0,24.1 9.2,43.5 20.7,43.5 h 173.7 c 11.5,0 20.8,-19.4 20.8,-43.5 0,-24 -9.3,-43.5 -20.8,-43.5"
         style="fill:#61c1ce;fill-opacity:1;fill-rule:nonzero;stroke:none"
         id="path230" />
      <path
         d="m 27241,26814 h -173.7 c -11.5,0 -20.8,19.5 -20.8,43.5 0,24.1 9.3,43.5 20.8,43.5 h 173.7 c 11.5,0 20.7,-19.4 20.7,-43.5 0,-24 -9.2,-43.5 -20.7,-43.5"
         style="fill:#61c1ce;fill-opacity:1;fill-rule:nonzero;stroke:none"
         id="path232" />
      <path
         d="m 29753.8,26487.3 h -2686.5 c -11.5,0 -20.8,19.5 -20.8,43.5 0,24.1 9.3,43.5 20.8,43.5 h 2686.5 c 11.5,0 20.8,-19.4 20.8,-43.5 0,-24 -9.3,-43.5 -20.8,-43.5"
         style="fill:#ef343c;fill-opacity:1;fill-rule:nonzero;stroke:none"
         id="path234" />
      <path
         d="m 26866.6,26814 h -62.7 c -11.5,0 -20.7,19.5 -20.7,43.5 0,24.1 9.2,43.5 20.7,43.5 h 62.7 c 11.5,0 20.7,-19.4 20.7,-43.5 0,-24 -9.2,-43.5 -20.7,-43.5"
         style="fill:#61c1ce;fill-opacity:1;fill-rule:nonzero;stroke:none"
         id="path236" />
      <path
         d="m 26866.6,26487.3 h -62.7 c -11.5,0 -20.7,19.5 -20.7,43.5 0,24.1 9.2,43.5 20.7,43.5 h 62.7 c 11.5,0 20.7,-19.4 20.7,-43.5 0,-24 -9.2,-43.5 -20.7,-43.5"
         style="fill:#61c1ce;fill-opacity:1;fill-rule:nonzero;stroke:none"
         id="path238" />
      <path
         d="m 26866.6,26160.6 h -62.7 c -11.5,0 -20.7,19.5 -20.7,43.5 0,24 9.2,43.5 20.7,43.5 h 62.7 c 11.5,0 20.7,-19.5 20.7,-43.5 0,-24 -9.2,-43.5 -20.7,-43.5"
         style="fill:#61c1ce;fill-opacity:1;fill-rule:nonzero;stroke:none"
         id="path240" />
      <path
         d="m 26866.6,25833.9 h -62.7 c -11.5,0 -20.7,19.5 -20.7,43.5 0,24 9.2,43.5 20.7,43.5 h 62.7 c 11.5,0 20.7,-19.5 20.7,-43.5 0,-24 -9.2,-43.5 -20.7,-43.5"
         style="fill:#61c1ce;fill-opacity:1;fill-rule:nonzero;stroke:none"
         id="path242" />
      <path
         d="m 30287.6,26487.3 h -371 c -11.4,0 -20.7,19.5 -20.7,43.5 0,24.1 9.3,43.5 20.7,43.5 h 371 c 11.5,0 20.7,-19.4 20.7,-43.5 0,-24 -9.2,-43.5 -20.7,-43.5"
         style="fill:#ef343c;fill-opacity:1;fill-rule:nonzero;stroke:none"
         id="path244" />
      <path
         d="m 27804.2,26160.6 h -743.4 c -11.4,0 -20.7,19.5 -20.7,43.5 0,24 9.3,43.5 20.7,43.5 h 743.4 c 11.5,0 20.7,-19.5 20.7,-43.5 0,-24 -9.2,-43.5 -20.7,-43.5"
         style="fill:#ef343c;fill-opacity:1;fill-rule:nonzero;stroke:none"
         id="path246" />
      <path
         d="m 27804.2,25825.9 h -743.4 c -11.4,0 -20.7,19.5 -20.7,43.5 0,24 9.3,43.5 20.7,43.5 h 743.4 c 11.5,0 20.7,-19.5 20.7,-43.5 0,-24 -9.2,-43.5 -20.7,-43.5"
         style="fill:#ef343c;fill-opacity:1;fill-rule:nonzero;stroke:none"
         id="path248" />
      <path
         d="m 27804.2,25491.2 h -743.4 c -11.4,0 -20.7,19.5 -20.7,43.5 0,24 9.3,43.5 20.7,43.5 h 743.4 c 11.5,0 20.7,-19.5 20.7,-43.5 0,-24 -9.2,-43.5 -20.7,-43.5"
         style="fill:#ef343c;fill-opacity:1;fill-rule:nonzero;stroke:none"
         id="path250" />
      <path
         d="m 27804.2,25156.5 h -743.4 c -11.4,0 -20.7,19.4 -20.7,43.5 0,24 9.3,43.5 20.7,43.5 h 743.4 c 11.5,0 20.7,-19.5 20.7,-43.5 0,-24.1 -9.2,-43.5 -20.7,-43.5"
         style="fill:#ef343c;fill-opacity:1;fill-rule:nonzero;stroke:none"
         id="path252" />
      <path
         d="m 29807.5,25156.5 h -1512.9 c -11.5,0 -20.7,19.4 -20.7,43.5 0,24 9.2,43.5 20.7,43.5 h 1512.9 c 11.5,0 20.8,-19.5 20.8,-43.5 0,-24.1 -9.3,-43.5 -20.8,-43.5"
         style="fill:#fac021;fill-opacity:1;fill-rule:nonzero;stroke:none"
         id="path254" />
      <path
         d="m 29807.5,25491.2 h -615.9 c -11.5,0 -20.8,19.5 -20.8,43.5 0,24 9.3,43.5 20.8,43.5 h 615.9 c 11.5,0 20.8,-19.5 20.8,-43.5 0,-24 -9.3,-43.5 -20.8,-43.5"
         style="fill:#fac021;fill-opacity:1;fill-rule:nonzero;stroke:none"
         id="path256" />
      <path
         d="M 29807.5,25833.9 H 29563 c -11.5,0 -20.8,19.5 -20.8,43.5 0,24 9.3,43.5 20.8,43.5 h 244.5 c 11.5,0 20.8,-19.5 20.8,-43.5 0,-24 -9.3,-43.5 -20.8,-43.5"
         style="fill:#fac021;fill-opacity:1;fill-rule:nonzero;stroke:none"
         id="path258" />
      <path
         d="m 36864.5,26873.1 c 0,0 -299,-348.5 -308.2,-1091.8 -6.3,-498.7 -20.2,-1026.8 865.7,-1101.2 0,0 185.8,-12.3 142.5,-359.3 -43.4,-346.9 -247.8,-557.5 -216.9,-712.4 31,-154.8 879.7,99.2 879.7,99.2 0,0 37.2,1071.7 204.4,1263.7 167.3,192 749.6,514.2 650.5,941.6 -99.1,427.5 -1162.9,1187.7 -1542.5,1288.5 -396.5,105.3 -675.2,-328.3 -675.2,-328.3"
         style="fill:#fde3e6;fill-opacity:1;fill-rule:nonzero;stroke:none"
         id="path260" />
      <path
         d="m 36831.5,26638.9 c 0,0 253.8,460.4 747.4,213.9 493.6,-246.5 1182.5,-570.7 930.6,-1090.1 l 421.2,714.6 c 0,0 -1500.5,1518.3 -2099.2,161.6"
         style="fill:#f8a9b4;fill-opacity:1;fill-rule:nonzero;stroke:none"
         id="path262" />
      <path
         d="m 33813.9,15878 c -176.7,0 -320.3,-143.8 -320.3,-320.4 v -4397.8 c 0,-176.7 143.6,-320.4 320.3,-320.4 h 2934.2 c -59.8,92.4 -94.6,202.5 -94.6,320.4 v 4397.8 c 0,326 265.2,591.1 591.2,591.1 H 39321 c 142.5,0 265.8,91.7 306.9,227.9 l 1950.8,6471.5 c 29.6,98 11.5,201.4 -49.6,283.5 -61,82.3 -154.7,129.4 -257.2,129.4 h -1996 c -431.1,0 -804.4,-277.4 -928.8,-690.1 l -1890.8,-6272.4 c -75.7,-251.4 -303.1,-420.5 -565.9,-420.5 z m 6114.4,-5309.2 h -6114.4 c -325.9,0 -591,265.1 -591,591 v 4397.8 c 0,326 265.1,591.1 591,591.1 h 2076.5 c 142.5,0 265.7,91.7 306.7,227.9 L 38088,22649 c 159,528 636.5,882.7 1187.9,882.7 h 1996 c 188.9,0 361.9,-87 474.5,-238.7 112.7,-151.5 145.9,-342.2 91.4,-523.1 l -1950.7,-6471.3 c -75.8,-251.5 -303.4,-420.6 -566.1,-420.6 h -2076.3 c -176.7,0 -320.5,-143.8 -320.5,-320.4 v -4397.8 c 0,-176.7 143.8,-320.4 320.5,-320.4 h 2683.6 v -270.6"
         style="fill:#17223d;fill-opacity:1;fill-rule:nonzero;stroke:none"
         id="path264" />
      <path
         d="m 37598.8,19133.1 h 2652.6 c 214.7,0 404.2,140.7 465.5,346.5 l 891.4,2953.9 c 59.6,198.5 -90.2,398.8 -295.9,398.8 H 38658 c -214.7,0 -402.4,-140.7 -465.6,-346.5 l -889.6,-2953.9 c -59.5,-198.5 88.4,-398.8 296,-398.8"
         style="fill:#1b3439;fill-opacity:1;fill-rule:nonzero;stroke:none"
         id="path266" />
      <path
         d="m 37598.5,19133.1 h 2291.7 c 214.8,0 404.3,140.7 465.6,346.5 l 891.4,2953.9 c 59.6,198.5 -90.2,398.8 -295.9,398.8 h -2291.7 c -214.8,0 -404.2,-140.7 -467.4,-346.5 l -889.6,-2953.9 c -59.6,-198.5 88.4,-398.8 295.9,-398.8"
         style="fill:#61c1ce;fill-opacity:1;fill-rule:nonzero;stroke:none"
         id="path268" />
      <path
         d="m 39074.4,17307.6 h -5588.9 c -18.7,0 -33.8,-15.1 -33.8,-33.8 V 16270 h 5656.5 v 1003.8 c 0,18.7 -15.1,33.8 -33.8,33.8"
         style="fill:#61c1ce;fill-opacity:1;fill-rule:nonzero;stroke:none"
         id="path270" />
      <path
         d="M 39346.9,16650.8 H 33213 c -8.4,0 -15.1,-6.8 -15.1,-15.2 v -575.5 c 0,-8.4 6.7,-15.1 15.1,-15.1 h 6133.9 c 8.4,0 15.1,6.7 15.1,15.1 v 575.5 c 0,8.4 -6.7,15.2 -15.1,15.2"
         style="fill:#1b3439;fill-opacity:1;fill-rule:nonzero;stroke:none"
         id="path272" />
      <path
         d="m 39928.3,10568.8 h -2683.6 c -326,0 -591.2,265.1 -591.2,591 v 4397.8 c 0,326 265.2,591.1 591.2,591.1 H 39321 c 142.5,0 265.8,91.7 306.9,227.9 l 1950.8,6471.4 c 29.6,98.1 11.5,201.5 -49.6,283.6 -61,82.3 -154.7,129.4 -257.2,129.4 h -1996 c -74.7,0 -135.3,60.6 -135.3,135.3 0,74.7 60.6,135.4 135.3,135.4 h 1996 c 188.9,0 361.9,-87 474.5,-238.7 112.7,-151.5 145.9,-342.2 91.4,-523.1 l -1950.7,-6471.3 c -75.8,-251.5 -303.4,-420.6 -566.1,-420.6 h -2076.3 c -176.7,0 -320.5,-143.8 -320.5,-320.4 v -4397.8 c 0,-176.7 143.8,-320.4 320.5,-320.4 h 2683.6 c 74.7,0 135.3,-60.6 135.3,-135.3 0,-74.7 -60.6,-135.3 -135.3,-135.3"
         style="fill:#17223d;fill-opacity:1;fill-rule:nonzero;stroke:none"
         id="path274" />
      <path
         d="m 32837.2,12550 14.9,-1091.2 959.4,-3.7 -151.9,1540.6 -822.4,-445.7"
         style="fill:#fbc4c9;fill-opacity:1;fill-rule:nonzero;stroke:none"
         id="path276" />
      <path
         d="m 34268,22513.6 h -4475.7 c -74.3,0 -134.6,60.3 -134.6,134.5 0,74.4 60.3,134.6 134.6,134.6 H 34268 c 74.3,0 134.6,-60.2 134.6,-134.6 0,-74.2 -60.3,-134.5 -134.6,-134.5"
         style="fill:#61c1ce;fill-opacity:1;fill-rule:nonzero;stroke:none"
         id="path278" />
      <path
         d="m 29657.7,22682.5 -535.1,2599.8 c -13.2,64.7 36.1,125.4 102.3,125.4 h 2722.5 c 49.8,0 92.6,-35.2 102.3,-84 l 527.3,-2641.2 h -2919.3"
         style="fill:#61c1ce;fill-opacity:1;fill-rule:nonzero;stroke:none"
         id="path280" />
      <path
         d="m 29424.9,25209.9 498.8,-2358.4 h 2468.9 l -498.8,2358.4 h -2468.9"
         style="fill:#ffffff;fill-opacity:1;fill-rule:nonzero;stroke:none"
         id="path282" />
      <path
         d="m 34788.8,19630.7 c 0,0 -3666.7,-667.9 -3892.9,-1595.9 -412.1,-1690.9 -1367.9,-4982.6 -1367.9,-4982.6 0,0 486.6,-488.4 1197.5,-335.1 0,0 1856.1,3735 1667.1,4863.6 0,0 4207.1,5.3 4429,889.7 221.8,884.5 -2032.8,1160.3 -2032.8,1160.3"
         style="fill:#17223d;fill-opacity:1;fill-rule:nonzero;stroke:none"
         id="path284" />
      <path
         d="m 35923,18959.7 c 0,0 -2835.9,-243.2 -3530.4,-1379 -215.8,-352.9 184.4,-5442.2 184.4,-5442.2 0,0 573.7,-211.9 1284.5,-58.6 0,0 280.5,3736.3 91.5,4864.9 0,0 3780.9,-29.7 4002.8,854.7 221.8,884.4 -2032.8,1160.2 -2032.8,1160.2"
         style="fill:#1c254b;fill-opacity:1;fill-rule:nonzero;stroke:none"
         id="path286" />
      <path
         d="m 39255.6,26956.7 c 0,0 -1429.6,1282.4 -2294.4,399.6 0,0 -376.6,-455.3 -332.7,-1050 0,0 400.4,750.2 644.8,731 537.6,-42.2 1377.6,-552.3 1378,-804.3 0.4,-251.9 -321.4,-836 -321.4,-836 0,0 424.4,710.2 516.9,379.6 92.5,-330.6 -385.9,-734.1 -385.9,-734.1 0,0 1120,250.9 989.9,1514.7 0,0 -37.6,271.8 -195.2,399.5"
         style="fill:#fac021;fill-opacity:1;fill-rule:nonzero;stroke:none"
         id="path288" />
      <path
         d="m 30426.8,11595.2 c -39.5,-63 -76.3,-117.7 -108.8,-174.8 -16.5,-28.9 -33,-35.9 -67.3,-29.4 -211.7,40.3 -424.8,73.8 -635.9,117 -113.3,23.2 -213.6,4 -309.3,-53.5 -97.1,-58.5 -198.5,-109.3 -299.1,-161.6 -64.6,-33.6 -133.2,-47.1 -204.9,-52.3 -94.9,-6.9 -185.2,22.5 -278.1,31.6 -12.8,1.2 -17.6,9.8 -21.5,18.1 -26.4,54.4 -35.9,109.8 -4.3,165.6 16.2,28.7 34.2,37.7 72.9,28.5 121.5,-28.7 245.9,-46.1 364.6,11 76.6,36.9 152.9,76 223.6,122.5 147.6,96.9 309.1,132.1 481.8,106.4 259.4,-38.6 517.6,-84.6 786.3,-129.1 z m -1276,624.2 c -15.3,-16.7 -30.6,-33.3 -45.9,-49.9 13.9,-13.8 27.3,-28.3 41.9,-41.5 20.2,-18.2 30.5,-39.1 11.7,-62.2 -20.1,-24.9 -45.1,-22 -69.2,-3.5 -20.6,15.8 -41.1,31.9 -61.6,47.9 -17.6,-14.6 -35.1,-29.2 -52.7,-43.7 11.8,-13.3 22.7,-27.7 35.7,-40 24,-22.9 41.9,-49.2 12.5,-76.3 -29.4,-27.1 -55.8,-7 -78.2,16.1 -15.3,15.8 -30.9,31.4 -46.4,47.1 -22.2,-13.4 -44.4,-26.7 -66.5,-39.8 16.6,-21.2 34.1,-42 49.4,-64.2 13.8,-20 13.8,-41.5 -5.7,-58.2 -19.4,-16.5 -41.7,-15.2 -59.6,2.2 -22.5,22 -42.6,46.4 -63.7,69.7 -25.8,-13.7 -51.5,-27.3 -77.3,-40.9 1.9,-5.6 3,-11.5 5.6,-16.7 17.2,-33.8 70.8,-69.7 15.8,-104.6 -50.8,-32.3 -64.5,27.7 -88.8,54.6 -21.9,24.2 -71.5,22.4 -83.9,-5.9 -10.5,-24.1 11.3,-40.3 21,-58.7 14,-26.5 16,-51.4 -12.4,-66.7 -27.6,-14.9 -50,-2.9 -65.5,23.4 -11,18.7 -23.9,36.4 -36,54.5 -23.2,-9.2 -46.5,-18.5 -69.6,-27.6 -5.3,-22.4 13.6,-35.7 21.8,-53 12.6,-26.8 14.1,-51.4 -15.5,-66.7 -26.7,-13.8 -46.2,-0.3 -61.5,22.1 -13.4,19.6 -19.6,44 -41.1,58.1 -23.8,-9.2 -47.6,-18.3 -71.4,-27.4 -5.7,-24.3 11,-42 19.9,-61.9 11.8,-26.4 12.5,-51.5 -16.6,-65.3 -28.5,-13.7 -49.3,-0.3 -63.3,26.2 -11.8,22.4 -25.1,43.9 -37.8,65.8 -24.8,-14 -51.2,-22.7 -79.8,-22.7 -81.3,-27.3 -166.5,-44 -245.2,-79.5 -23.8,-10.7 -48.5,-17 -74.6,-14 -14.3,-3.6 -29,-6.9 -43.6,-10.3 -27.3,-12 -54.6,-23.9 -81.6,-35.6 5.9,0.3 12.9,-1.8 16.8,0.7 10.6,7.1 3.8,12.9 -4.4,12.8 -28.2,-0.3 -54.4,-8.2 -78.2,-23.4 -17.7,-8.9 -36,-15.6 -56.4,-14.8 l 2.6,0.3 c -10.4,-3 -20.8,-6 -31,-9.1 l -3.8,-2.1 3,-1.3 c -13.4,-8.4 -27.9,-13.6 -44.2,-12.5 l 3.1,0.5 c -10.9,-5.3 -21.9,-10.6 -32.7,-15.8 l 2.7,2.2 -3.7,-3.4 c -20.8,-11.7 -41.6,-23.3 -62.2,-34.7 1.7,1.4 3.2,2.6 4.8,3.9 -2.2,-1.3 -4.2,-3.3 -6.6,-3.8 -7,-1.6 -14.2,-2.5 -21.3,-3.7 -15.2,-10.5 -30.4,-20.9 -45.6,-31.4 l 2.6,0.6 v 3 c -10.4,-8.8 -20.8,-17.6 -31.2,-26.3 l 1.7,-0.1 c -74,-58.4 -154.8,-110 -202.5,-194.6 288.8,-0.1 577.6,-0.3 866.5,-0.4 722.4,-0.1 1444.9,0 2167.3,-0.1 187.3,0 374.6,-0.4 561.8,-0.7 1.4,232.1 4.3,464.2 2.7,696.3 -0.3,48.3 24.1,95 11.8,141.3 -19.5,73.1 -10.9,144 0.5,216.3 4.3,27 4,56.2 -17.7,78.9 -14.4,15.1 -5.8,26.5 1.7,41.9 28.2,58.4 30.5,117.5 -4.2,175 l 4.2,-1.4 c -14.2,9 -28.4,18 -42.5,26.7 -7,1.6 -14.2,5.2 -21.4,5.2 -325.4,0.3 -650.9,0.4 -976.3,0 -19.7,-0.1 -41.5,-1.3 -58.2,-9.8 -10.4,-5.3 5.3,-8.1 10.9,-10.3 -18.6,17 -37.2,34 -55.6,50.9 -17.5,-23.7 -33.9,-48.3 -53.2,-70.5 -34.1,-39.3 -57.3,-90.5 -115.7,-104.1 -9,-10.4 -18,-20.7 -27,-31 l -1.7,-0.9 0.1,1.8 c -7.3,-10.9 -14.5,-21.8 -21.7,-32.6 15.8,-14.8 31.1,-30 47.5,-44.2 23.5,-20.4 37.8,-43.2 12.9,-70.4 -22.4,-24.3 -46.2,-15.7 -69,2.3 -18.6,14.6 -38.3,28 -57.5,41.9"
         style="fill:#201d1d;fill-opacity:1;fill-rule:nonzero;stroke:none"
         id="path290" />
      <path
         d="m 30580.2,11116.1 c -187.2,0.3 -374.5,0.7 -561.8,0.7 -722.4,0.1 -1444.9,0 -2167.3,0.1 -288.9,0.1 -577.7,0.3 -866.5,0.4 -14.3,-66.6 -10.4,-134.3 -5.9,-201.1 4.3,-63.9 53.1,-99.3 128.5,-99.9 213.7,-1.6 427.5,-3 641.3,-3.2 885.8,-0.8 1771.5,-1.1 2657.3,-1.2 28.3,0 57.5,1 84.6,7.8 55.3,13.9 98.5,68.1 89.7,120.1 -10.2,59.5 2.5,117.6 0.1,176.3"
         style="fill:#ffffff;fill-opacity:1;fill-rule:nonzero;stroke:none"
         id="path292" />
      <path
         d="m 28431,11762.1 c 12.1,-18.1 25,-35.8 36,-54.5 15.5,-26.3 37.9,-38.3 65.5,-23.4 28.4,15.3 26.4,40.2 12.4,66.7 -9.7,18.4 -31.5,34.6 -21,58.7 12.4,28.3 62,30.1 83.9,5.9 24.3,-26.9 38,-86.9 88.8,-54.6 55,34.9 1.4,70.8 -15.8,104.6 -2.6,5.2 -3.7,11.1 -5.6,16.7 -46.7,23.2 -76.2,15.3 -84.4,-40.8 -7.2,-49.4 -43.6,-42.8 -77.4,-32 -62.1,20 -71.3,15.5 -82.4,-47.3"
         style="fill:#eae7ed;fill-opacity:1;fill-rule:nonzero;stroke:none"
         id="path294" />
      <path
         d="m 28752.5,11923.1 c 21.1,-23.3 41.2,-47.7 63.7,-69.7 17.9,-17.4 40.2,-18.7 59.6,-2.2 19.5,16.7 19.5,38.2 5.7,58.2 -15.3,22.2 -32.8,43 -49.4,64.2 -44.7,10.4 -72.7,-4.2 -79.6,-50.5"
         style="fill:#eae7ed;fill-opacity:1;fill-rule:nonzero;stroke:none"
         id="path296" />
      <path
         d="m 28265.1,11695 c 21.5,-14.1 27.7,-38.5 41.1,-58.1 15.3,-22.4 34.8,-35.9 61.5,-22.1 29.6,15.3 28.1,39.9 15.5,66.7 -8.2,17.3 -27.1,30.6 -21.8,53 -63.6,32.4 -79.7,25.8 -96.3,-39.5"
         style="fill:#eae7ed;fill-opacity:1;fill-rule:nonzero;stroke:none"
         id="path298" />
      <path
         d="m 28095.9,11632.4 c 12.7,-21.9 26,-43.4 37.8,-65.8 14,-26.5 34.8,-39.9 63.3,-26.2 29.1,13.8 28.4,38.9 16.6,65.3 -8.9,19.9 -25.6,37.6 -19.9,61.9 -45.8,23.3 -80.7,17.8 -97.8,-35.2"
         style="fill:#eae7ed;fill-opacity:1;fill-rule:nonzero;stroke:none"
         id="path300" />
      <path
         d="m 28898.6,12013.4 c 15.5,-15.7 31.1,-31.3 46.4,-47.1 22.4,-23.1 48.8,-43.2 78.2,-16.1 29.4,27.1 11.5,53.4 -12.5,76.3 -13,12.3 -23.9,26.7 -35.7,40 -49.4,15.1 -74.5,-3 -76.4,-53.1"
         style="fill:#eae7ed;fill-opacity:1;fill-rule:nonzero;stroke:none"
         id="path302" />
      <path
         d="m 29150.8,12219.4 c 19.2,-13.9 38.9,-27.3 57.5,-41.9 22.8,-18 46.6,-26.6 69,-2.3 24.9,27.2 10.6,50 -12.9,70.4 -16.4,14.2 -31.7,29.4 -47.5,44.2 -54.3,5.5 -76.6,-17.7 -66.1,-70.4"
         style="fill:#eae7ed;fill-opacity:1;fill-rule:nonzero;stroke:none"
         id="path304" />
      <path
         d="m 29027.7,12110.2 c 20.5,-16 41,-32.1 61.6,-47.9 24.1,-18.5 49.1,-21.4 69.2,3.5 18.8,23.1 8.5,44 -11.7,62.2 -14.6,13.2 -28,27.7 -41.9,41.5 -63.7,13.1 -76.7,3.2 -77.2,-59.3"
         style="fill:#eae7ed;fill-opacity:1;fill-rule:nonzero;stroke:none"
         id="path306" />
      <path
         d="m 29491.7,12476.2 c -5.6,2.2 -21.3,5 -10.9,10.3 16.7,8.5 38.5,9.7 58.2,9.8 325.4,0.4 650.9,0.3 976.3,0 7.2,0 14.4,-3.6 21.4,-5.2 15.9,-17.5 -2.8,-19.2 -12.2,-20.4 -28.1,-3.6 -56.5,-6.7 -84.8,-6.7 -284.1,-0.5 -568.2,-0.6 -852.4,-0.2 -32.1,0.1 -65.2,-2.8 -95.6,12.4"
         style="fill:#eae7ed;fill-opacity:1;fill-rule:nonzero;stroke:none"
         id="path308" />
      <path
         d="m 29267.2,12352.5 c 58.4,13.6 81.6,64.8 115.7,104.1 19.3,22.2 35.7,46.8 53.2,70.5 -13.8,21.3 -25.9,46 -47.2,4.8 -20.7,-40.1 -41.1,-78.6 -87.4,-100.9 -26.5,-12.8 -28.1,-49.8 -34.3,-78.5"
         style="fill:#eae7ed;fill-opacity:1;fill-rule:nonzero;stroke:none"
         id="path310" />
      <path
         d="m 27770.9,11530.2 c 78.7,35.5 163.9,52.2 245.2,79.5 19,-5.4 8.2,-13.7 -0.1,-17.5 -77.1,-35.7 -158.5,-57.4 -242.4,-71.1 -1.3,-0.2 -4,2 -4.4,3.5 -0.4,1.6 1,3.7 1.7,5.6"
         style="fill:#eae7ed;fill-opacity:1;fill-rule:nonzero;stroke:none"
         id="path312" />
      <path
         d="m 27505.3,11460.4 c 23.8,15.2 50,23.1 78.2,23.4 8.2,0.1 15,-5.7 4.4,-12.8 -3.9,-2.5 -10.9,-0.4 -16.8,-0.7 -17.2,-18.1 -40.1,-14.1 -61.3,-15.9 -1.8,-0.1 -4,0.6 -5.5,1.5 -0.5,0.3 0.6,2.9 1,4.5"
         style="fill:#eae7ed;fill-opacity:1;fill-rule:nonzero;stroke:none"
         id="path314" />
      <path
         d="m 27652.7,11505.9 c 14.6,3.4 29.3,6.7 43.6,10.3 -6.9,-32.3 -33.5,-33.4 -55.3,-25.2 -12,4.5 1.7,13.5 11.7,14.9"
         style="fill:#eae7ed;fill-opacity:1;fill-rule:nonzero;stroke:none"
         id="path316" />
      <path
         d="m 27259.6,11366.1 c 7.1,1.2 14.3,2.1 21.3,3.7 2.4,0.5 4.4,2.5 6.6,3.8 -1.6,-1.3 -3.1,-2.5 -4.8,-3.9 -8.6,-5.9 -15.6,-15.8 -28.1,-10.1 -7.4,3.4 -4.7,11.3 0,4.8 0.3,-0.4 3.3,1.1 5,1.7"
         style="fill:#eae7ed;fill-opacity:1;fill-rule:nonzero;stroke:none"
         id="path318" />
      <path
         d="m 27344.9,11404.4 3.7,3.4 -2.7,-2.2 -3.3,-3 2.3,1.8"
         style="fill:#eae7ed;fill-opacity:1;fill-rule:nonzero;stroke:none"
         id="path320" />
      <path
         d="m 29238.6,12322.4 -0.1,-1.8 1.7,0.9 0.6,2.6 -2.2,-1.7"
         style="fill:#eae7ed;fill-opacity:1;fill-rule:nonzero;stroke:none"
         id="path322" />
      <path
         d="m 27419.7,11433.4 -3,1.3 3.8,2.1 2.4,-2.3 -3.2,-1.1"
         style="fill:#eae7ed;fill-opacity:1;fill-rule:nonzero;stroke:none"
         id="path324" />
      <path
         d="m 27187.1,11311.9 -1.7,0.1 1.7,-0.1"
         style="fill:#eae7ed;fill-opacity:1;fill-rule:nonzero;stroke:none"
         id="path326" />
      <path
         d="m 30579.2,12464.4 -4.2,1.4 4.2,-1.4"
         style="fill:#eae7ed;fill-opacity:1;fill-rule:nonzero;stroke:none"
         id="path328" />
      <path
         d="m 27216.6,11338.3 v -3 l -2.6,-0.6 z"
         style="fill:#eae7ed;fill-opacity:1;fill-rule:nonzero;stroke:none"
         id="path330" />
      <path
         d="m 27451.5,11445.9 -2.6,-0.3 0.8,2.8 z"
         style="fill:#eae7ed;fill-opacity:1;fill-rule:nonzero;stroke:none"
         id="path332" />
      <path
         d="m 27378.6,11421.4 -3.1,-0.5 0.8,3.5 z"
         style="fill:#eae7ed;fill-opacity:1;fill-rule:nonzero;stroke:none"
         id="path334" />
      <path
         d="m 30426.8,11595.2 c -268.7,44.5 -526.9,90.5 -786.3,129.1 -172.7,25.7 -334.2,-9.5 -481.8,-106.4 -70.7,-46.5 -147,-85.6 -223.6,-122.5 -118.7,-57.1 -243.1,-39.7 -364.6,-11 -38.7,9.2 -56.7,0.2 -72.9,-28.5 -31.6,-55.8 -22.1,-111.2 4.3,-165.6 3.9,-8.3 8.7,-16.9 21.5,-18.1 92.9,-9.1 183.2,-38.5 278.1,-31.6 71.7,5.2 140.3,18.7 204.9,52.3 100.6,52.3 202,103.1 299.1,161.6 95.7,57.5 196,76.7 309.3,53.5 211.1,-43.2 424.2,-76.7 635.9,-117 34.3,-6.5 50.8,0.5 67.3,29.4 32.5,57.1 69.3,111.8 108.8,174.8"
         style="fill:#ffffff;fill-opacity:1;fill-rule:nonzero;stroke:none"
         id="path336" />
      <path
         d="m 33725.6,10935.5 c -39.6,-63 -76.3,-117.8 -108.9,-174.8 -16.5,-28.9 -32.9,-35.9 -67.2,-29.4 -211.8,40.3 -424.9,73.7 -635.9,117 -113.4,23.2 -213.7,4 -309.4,-53.6 -97.1,-58.4 -198.4,-109.2 -299,-161.5 -64.7,-33.6 -133.3,-47.1 -205,-52.3 -94.9,-6.9 -185.2,22.4 -278.1,31.6 -12.8,1.2 -17.5,9.8 -21.5,18 -26.4,54.5 -35.9,109.8 -4.3,165.7 16.2,28.7 34.2,37.6 72.9,28.5 121.5,-28.7 246,-46.1 364.6,11 76.6,36.8 152.9,76 223.6,122.4 147.6,97 309.1,132.2 481.8,106.5 259.4,-38.6 517.7,-84.6 786.4,-129.1 z m -1276.1,624.1 c -15.3,-16.6 -30.6,-33.2 -45.9,-49.8 13.9,-13.8 27.4,-28.3 42,-41.5 20.1,-18.2 30.4,-39.1 11.7,-62.2 -20.2,-24.9 -45.2,-22 -69.2,-3.6 -20.7,15.8 -41.1,31.9 -61.7,47.9 -17.6,-14.6 -35.1,-29.1 -52.7,-43.6 11.8,-13.3 22.7,-27.7 35.7,-40.1 24,-22.9 41.9,-49.1 12.5,-76.2 -29.4,-27.1 -55.7,-7.1 -78.2,16.1 -15.3,15.8 -30.9,31.4 -46.4,47 -22.2,-13.3 -44.4,-26.6 -66.5,-39.7 16.7,-21.3 34.1,-42 49.4,-64.2 13.9,-20.1 13.9,-41.6 -5.7,-58.2 -19.4,-16.5 -41.7,-15.3 -59.5,2.2 -22.5,22 -42.6,46.3 -63.8,69.7 -25.7,-13.7 -51.5,-27.4 -77.2,-41 1.8,-5.5 2.9,-11.5 5.6,-16.7 17.2,-33.8 70.7,-69.6 15.8,-104.5 -50.9,-32.3 -64.5,27.7 -88.9,54.6 -21.9,24.2 -71.4,22.4 -83.8,-6 -10.5,-24 11.2,-40.2 21,-58.6 14,-26.5 15.9,-51.4 -12.5,-66.8 -27.5,-14.8 -50,-2.8 -65.5,23.5 -11,18.7 -23.9,36.3 -35.9,54.5 -23.3,-9.3 -46.6,-18.5 -69.7,-27.6 -5.3,-22.4 13.7,-35.7 21.8,-53 12.6,-26.8 14.1,-51.4 -15.5,-66.7 -26.7,-13.8 -46.2,-0.3 -61.5,22.1 -13.4,19.5 -19.6,44 -41.1,58 -23.8,-9.1 -47.6,-18.2 -71.3,-27.3 -5.7,-24.3 11,-42.1 19.9,-62 11.8,-26.3 12.4,-51.4 -16.6,-65.3 -28.5,-13.6 -49.4,-0.2 -63.3,26.3 -11.8,22.3 -25.2,43.9 -37.9,65.8 -24.8,-14 -51.2,-22.7 -79.8,-22.8 -81.3,-27.2 -166.4,-43.9 -245.2,-79.5 -23.8,-10.6 -48.4,-16.9 -74.5,-13.9 -14.4,-3.6 -29,-7 -43.7,-10.3 -27.3,-12 -54.6,-24 -81.6,-35.7 5.9,0.3 13,-1.8 16.8,0.8 10.6,7 3.8,12.9 -4.3,12.8 -28.2,-0.3 -54.5,-8.3 -78.3,-23.5 -17.7,-8.8 -36,-15.6 -56.4,-14.8 l 2.6,0.4 c -10.4,-3 -20.7,-6.1 -31,-9.1 l -3.8,-2.1 3,-1.3 c -13.4,-8.5 -27.8,-13.7 -44.1,-12.5 l 3,0.5 c -10.9,-5.3 -21.9,-10.6 -32.7,-15.8 l 2.7,2.2 -3.7,-3.5 c -20.8,-11.6 -41.6,-23.2 -62.2,-34.6 1.7,1.4 3.2,2.6 4.8,3.8 -2.2,-1.3 -4.2,-3.3 -6.5,-3.8 -7.1,-1.5 -14.3,-2.5 -21.4,-3.7 -15.2,-10.4 -30.4,-20.8 -45.6,-31.3 l 2.7,0.6 -0.1,3 c -10.4,-8.8 -20.8,-17.6 -31.1,-26.4 h 1.6 c -74,-58.4 -154.7,-110.1 -202.4,-194.6 288.7,-0.2 577.6,-0.4 866.4,-0.4 722.4,-0.1 1444.9,0 2167.4,-0.1 187.2,-0.1 374.5,-0.5 561.8,-0.7 1.3,232.1 4.3,464.2 2.6,696.3 -0.3,48.3 24.2,94.9 11.8,141.2 -19.5,73.1 -10.9,144 0.5,216.3 4.3,27.1 4,56.3 -17.6,78.9 -14.5,15.2 -5.8,26.5 1.6,42 28.2,58.3 30.6,117.4 -4.2,175 l 4.3,-1.5 c -14.3,9 -28.5,18 -42.6,26.7 -7,1.6 -14.1,5.3 -21.4,5.3 -325.4,0.3 -650.8,0.4 -976.3,-0.1 -19.6,0 -41.5,-1.2 -58.1,-9.7 -10.5,-5.4 5.2,-8.1 10.9,-10.4 -18.6,17 -37.3,34.1 -55.6,51 -17.5,-23.7 -33.9,-48.3 -53.2,-70.6 -34.1,-39.2 -57.4,-90.5 -115.8,-104.1 -9,-10.3 -18,-20.6 -26.9,-30.9 l -1.8,-1 0.1,1.8 c -7.2,-10.9 -14.4,-21.7 -21.7,-32.6 15.8,-14.7 31.2,-29.9 47.5,-44.1 23.5,-20.5 37.9,-43.3 12.9,-70.4 -22.3,-24.3 -46.1,-15.7 -69,2.2 -18.6,14.7 -38.3,28 -57.5,41.9"
         style="fill:#201d1d;fill-opacity:1;fill-rule:nonzero;stroke:none"
         id="path338" />
      <path
         d="m 33879,10456.4 c -187.3,0.2 -374.6,0.6 -561.8,0.7 -722.5,0.1 -1445,0 -2167.4,0.1 -288.8,0 -577.7,0.2 -866.4,0.4 -14.4,-66.7 -10.4,-134.3 -6,-201.1 4.3,-63.9 53.1,-99.4 128.5,-99.9 213.8,-1.6 427.6,-3.1 641.3,-3.3 885.8,-0.7 1771.6,-1.1 2657.3,-1.2 28.3,0 57.5,1.1 84.6,7.9 55.3,13.9 98.6,68.1 89.7,120 -10.1,59.5 2.5,117.7 0.2,176.4"
         style="fill:#ffffff;fill-opacity:1;fill-rule:nonzero;stroke:none"
         id="path340" />
      <path
         d="m 31729.8,11102.4 c 12,-18.2 24.9,-35.8 35.9,-54.5 15.5,-26.3 38,-38.3 65.5,-23.5 28.4,15.4 26.5,40.3 12.5,66.8 -9.8,18.4 -31.5,34.6 -21,58.6 12.4,28.4 61.9,30.2 83.8,6 24.4,-26.9 38,-86.9 88.9,-54.6 54.9,34.9 1.4,70.7 -15.8,104.5 -2.7,5.2 -3.8,11.2 -5.6,16.7 -46.8,23.3 -76.3,15.4 -84.5,-40.7 -7.2,-49.5 -43.6,-42.9 -77.4,-32 -62,20 -71.2,15.5 -82.3,-47.3"
         style="fill:#eae7ed;fill-opacity:1;fill-rule:nonzero;stroke:none"
         id="path342" />
      <path
         d="m 32051.2,11263.4 c 21.2,-23.4 41.3,-47.7 63.8,-69.7 17.8,-17.5 40.1,-18.7 59.5,-2.2 19.6,16.6 19.6,38.1 5.7,58.2 -15.3,22.2 -32.7,42.9 -49.4,64.2 -44.7,10.4 -72.6,-4.2 -79.6,-50.5"
         style="fill:#eae7ed;fill-opacity:1;fill-rule:nonzero;stroke:none"
         id="path344" />
      <path
         d="m 31563.8,11035.2 c 21.5,-14 27.7,-38.5 41.1,-58 15.3,-22.4 34.8,-35.9 61.5,-22.1 29.6,15.3 28.1,39.9 15.5,66.7 -8.1,17.3 -27.1,30.6 -21.8,53 -63.6,32.3 -79.7,25.7 -96.3,-39.6"
         style="fill:#eae7ed;fill-opacity:1;fill-rule:nonzero;stroke:none"
         id="path346" />
      <path
         d="m 31394.6,10972.7 c 12.7,-21.9 26.1,-43.5 37.9,-65.8 13.9,-26.5 34.8,-39.9 63.3,-26.3 29,13.9 28.4,39 16.6,65.3 -8.9,19.9 -25.6,37.7 -19.9,62 -45.9,23.3 -80.8,17.8 -97.9,-35.2"
         style="fill:#eae7ed;fill-opacity:1;fill-rule:nonzero;stroke:none"
         id="path348" />
      <path
         d="m 32197.3,11353.6 c 15.5,-15.6 31.1,-31.2 46.4,-47 22.5,-23.2 48.8,-43.2 78.2,-16.1 29.4,27.1 11.5,53.3 -12.5,76.2 -13,12.4 -23.9,26.8 -35.7,40.1 -49.3,15.1 -74.5,-3.1 -76.4,-53.2"
         style="fill:#eae7ed;fill-opacity:1;fill-rule:nonzero;stroke:none"
         id="path350" />
      <path
         d="m 32449.5,11559.6 c 19.2,-13.9 38.9,-27.2 57.5,-41.9 22.9,-17.9 46.7,-26.5 69,-2.2 25,27.1 10.6,49.9 -12.9,70.4 -16.3,14.2 -31.7,29.4 -47.5,44.1 -54.3,5.5 -76.6,-17.7 -66.1,-70.4"
         style="fill:#eae7ed;fill-opacity:1;fill-rule:nonzero;stroke:none"
         id="path352" />
      <path
         d="m 32326.4,11450.4 c 20.6,-16 41,-32.1 61.7,-47.9 24,-18.4 49,-21.3 69.2,3.6 18.7,23.1 8.4,44 -11.7,62.2 -14.6,13.2 -28.1,27.7 -42,41.5 -63.7,13.1 -76.6,3.2 -77.2,-59.4"
         style="fill:#eae7ed;fill-opacity:1;fill-rule:nonzero;stroke:none"
         id="path354" />
      <path
         d="m 32790.5,11816.4 c -5.7,2.3 -21.4,5 -10.9,10.4 16.6,8.5 38.5,9.7 58.1,9.7 325.5,0.5 650.9,0.4 976.3,0.1 7.3,0 14.4,-3.7 21.4,-5.3 15.9,-17.5 -2.7,-19.1 -12.1,-20.3 -28.1,-3.6 -56.5,-6.7 -84.8,-6.8 -284.2,-0.5 -568.3,-0.5 -852.4,-0.1 -32.2,0.1 -65.3,-2.9 -95.6,12.3"
         style="fill:#eae7ed;fill-opacity:1;fill-rule:nonzero;stroke:none"
         id="path356" />
      <path
         d="m 32565.9,11692.7 c 58.4,13.6 81.7,64.9 115.8,104.1 19.3,22.3 35.7,46.9 53.2,70.6 -13.8,21.2 -26,46 -47.3,4.8 -20.7,-40.1 -41.1,-78.6 -87.4,-101 -26.4,-12.7 -28.1,-49.7 -34.3,-78.5"
         style="fill:#eae7ed;fill-opacity:1;fill-rule:nonzero;stroke:none"
         id="path358" />
      <path
         d="m 31069.6,10870.4 c 78.8,35.6 163.9,52.3 245.2,79.5 19,-5.3 8.3,-13.6 -0.1,-17.4 -77,-35.7 -158.5,-57.4 -242.4,-71.1 -1.3,-0.3 -3.9,1.9 -4.4,3.5 -0.4,1.5 1.1,3.6 1.7,5.5"
         style="fill:#eae7ed;fill-opacity:1;fill-rule:nonzero;stroke:none"
         id="path360" />
      <path
         d="m 30804,10800.6 c 23.8,15.2 50.1,23.2 78.3,23.5 8.1,0.1 14.9,-5.8 4.3,-12.8 -3.8,-2.6 -10.9,-0.5 -16.8,-0.8 -17.2,-18 -40,-14.1 -61.3,-15.8 -1.8,-0.1 -3.9,0.5 -5.5,1.5 -0.4,0.3 0.6,2.9 1,4.4"
         style="fill:#eae7ed;fill-opacity:1;fill-rule:nonzero;stroke:none"
         id="path362" />
      <path
         d="m 30951.4,10846.2 c 14.7,3.3 29.3,6.7 43.7,10.3 -7,-32.3 -33.5,-33.5 -55.4,-25.3 -12,4.6 1.7,13.6 11.7,15"
         style="fill:#eae7ed;fill-opacity:1;fill-rule:nonzero;stroke:none"
         id="path364" />
      <path
         d="m 30558.3,10706.3 c 7.1,1.2 14.3,2.2 21.4,3.7 2.3,0.5 4.3,2.5 6.5,3.8 -1.6,-1.2 -3.1,-2.4 -4.8,-3.8 -8.6,-5.9 -15.6,-15.9 -28.1,-10.1 -7.4,3.3 -4.6,11.3 0,4.8 0.3,-0.4 3.3,1.1 5,1.6"
         style="fill:#eae7ed;fill-opacity:1;fill-rule:nonzero;stroke:none"
         id="path366" />
      <path
         d="m 30643.6,10744.6 3.7,3.5 -2.7,-2.2 -3.2,-3 2.2,1.7"
         style="fill:#eae7ed;fill-opacity:1;fill-rule:nonzero;stroke:none"
         id="path368" />
      <path
         d="m 32537.3,11662.6 -0.1,-1.8 1.8,1 0.6,2.6 -2.3,-1.8"
         style="fill:#eae7ed;fill-opacity:1;fill-rule:nonzero;stroke:none"
         id="path370" />
      <path
         d="m 30718.4,10773.7 -3,1.3 3.8,2.1 2.4,-2.4 -3.2,-1"
         style="fill:#eae7ed;fill-opacity:1;fill-rule:nonzero;stroke:none"
         id="path372" />
      <path
         d="m 30485.8,10652.2 h -1.6 1.6"
         style="fill:#eae7ed;fill-opacity:1;fill-rule:nonzero;stroke:none"
         id="path374" />
      <path
         d="m 33878,11804.6 -4.3,1.5 4.3,-1.5"
         style="fill:#eae7ed;fill-opacity:1;fill-rule:nonzero;stroke:none"
         id="path376" />
      <path
         d="m 30515.3,10678.6 0.1,-3 -2.7,-0.6 z"
         style="fill:#eae7ed;fill-opacity:1;fill-rule:nonzero;stroke:none"
         id="path378" />
      <path
         d="m 30750.2,10786.2 -2.6,-0.4 0.8,2.9 z"
         style="fill:#eae7ed;fill-opacity:1;fill-rule:nonzero;stroke:none"
         id="path380" />
      <path
         d="m 30677.3,10761.7 -3,-0.5 0.8,3.4 z"
         style="fill:#eae7ed;fill-opacity:1;fill-rule:nonzero;stroke:none"
         id="path382" />
      <path
         d="m 33725.6,10935.5 c -268.7,44.5 -527,90.5 -786.4,129.1 -172.7,25.7 -334.2,-9.5 -481.8,-106.5 -70.7,-46.4 -147,-85.6 -223.6,-122.4 -118.6,-57.1 -243.1,-39.7 -364.6,-11 -38.7,9.1 -56.7,0.2 -72.9,-28.5 -31.6,-55.9 -22.1,-111.2 4.3,-165.7 4,-8.2 8.7,-16.8 21.5,-18 92.9,-9.2 183.2,-38.5 278.1,-31.6 71.7,5.2 140.3,18.7 205,52.3 100.6,52.3 201.9,103.1 299,161.5 95.7,57.6 196,76.8 309.4,53.6 211,-43.3 424.1,-76.7 635.9,-117 34.3,-6.5 50.7,0.5 67.2,29.4 32.6,57 69.3,111.8 108.9,174.8"
         style="fill:#ffffff;fill-opacity:1;fill-rule:nonzero;stroke:none"
         id="path384" />
      <path
         d="m 37445.6,23931.1 c 0,0 -192,-333.5 -1003.5,-333.5 l -265.3,-168.8 c -111.5,-433.6 -583.6,-1850.6 -583.6,-1850.6 0,0 -190.7,289.5 -853.6,1094.8 0,0 -32.5,441.4 -292.7,497.2 -260.2,55.7 -562.2,13.9 -706.2,-213.8 0,0 4.7,-76.4 158,-182.2 0,0 -32.5,-87.2 171.9,-147.6 204.4,-60.4 357.7,-74.4 455.3,-204.5 97.6,-130 442,-1403.3 1036.8,-1668.2 l 1109.7,1732.8 773.2,1444.4"
         style="fill:#fde3e6;fill-opacity:1;fill-rule:nonzero;stroke:none"
         id="path386" />
      <path
         d="m 37445.6,23931.1 c 0,0 -244.3,-107.9 -866.1,-89.3 0,0 -257.9,6.7 -515.7,-532.2 -257.9,-539 -487.9,-871.2 -487.9,-871.2 0,0 328.4,-372.5 600.9,-459.2 0,0 -693.8,-1592.1 -1362.8,-2323 0,0 247.8,-433.7 2007.1,-1047 0,0 1065.5,-309.7 1152.2,-885.8 0,0 241.6,254 353.1,681.4 111.5,427.5 854.9,2056.7 854.9,2056.7 l 179.7,731 210.6,-365.3 c 0,0 600.9,123.7 830.1,594.5 0,0 -675.3,1530.1 -923,1877 -247.8,346.9 -951.5,265.4 -1237.7,662.4 0,0 -907.9,-631.8 -795.4,-30"
         style="fill:#ef343c;fill-opacity:1;fill-rule:nonzero;stroke:none"
         id="path388" />
      <path
         d="m 38989.3,22078.3 371.7,-885.8 -220.8,-821.6 -176.7,-394.9 c 0,0 -1213.2,-78.2 -1485.8,225.3 -272.5,303.6 1139.9,-43.4 1294.8,885.9 154.8,929.2 216.8,991.1 216.8,991.1"
         style="fill:#da2325;fill-opacity:1;fill-rule:nonzero;stroke:none"
         id="path390" />
      <path
         d="m 37052,21246.9 c 8.8,-34.9 -3.2,-54.9 -22.4,-67 -27.3,-17.2 -56,-34.3 -86.3,-43.3 -245.7,-72.9 -494,-69.5 -742.3,-19.2 -51.7,10.4 -102,32.8 -150.3,56 -36.3,17.5 -41.4,42.2 -24.9,73.6 12.4,-17.1 24.7,-33.9 38.1,-52.4 36.2,64.8 95.2,79.8 151.5,93.7 211.2,52.3 423.6,52.2 634.9,1.6 58.6,-14 120.5,-29 162.4,-100.7 13.7,20.1 24.3,35.7 39.3,57.7 z m -1088.5,-145.1 c 3.6,-147.6 25.3,-291.4 87.7,-425.3 85.8,-184.2 228,-282.1 418.5,-298.7 164,-14.4 318,15.1 442.4,142.1 95.1,97.2 147.9,220.4 169.4,355.6 16.9,105.8 17.6,214.6 26.5,321.9 4.8,58.1 -21.3,98.4 -68.4,117.6 -71.8,29.3 -145.1,56.8 -219.9,75 -152.6,36.9 -308.2,33.2 -462.8,17.2 -109,-11.3 -216.4,-33.2 -316.4,-85.8 -49.1,-25.7 -79.2,-60.6 -77.2,-121.5 1.1,-32.7 0.2,-65.4 0.2,-98.1"
         style="fill:#ffffff;fill-opacity:1;fill-rule:nonzero;stroke:none"
         id="path392" />
      <path
         d="m 37148.2,21119.2 c -3.1,-35.2 -8.4,-58.1 -6,-80.1 1.5,-13.4 12,-31.4 23.1,-36.9 55.7,-27.7 75.3,-66.9 59.8,-129.3 -13.6,-54.5 -44.1,-95.9 -94.3,-112.9 -36,-12.2 -55.7,-33.5 -65.8,-70.5 -5.4,-19.9 -15.7,-38.3 -24.1,-58.1 137.5,-24.2 290.7,129.2 292.2,288.9 0.7,73.3 -20.3,135.8 -85.5,169.5 -28.7,14.9 -62.3,18.9 -99.4,29.4"
         style="fill:#ffffff;fill-opacity:1;fill-rule:nonzero;stroke:none"
         id="path394" />
      <path
         d="m 37052,21246.9 c -15,-22 -25.6,-37.6 -39.3,-57.7 -41.9,71.7 -103.8,86.7 -162.4,100.7 -211.3,50.6 -423.7,50.7 -634.9,-1.6 -56.3,-13.9 -115.3,-28.9 -151.5,-93.7 -13.4,18.5 -25.7,35.3 -38.1,52.4 -16.5,-31.4 -11.4,-56.1 24.9,-73.6 48.3,-23.2 98.6,-45.6 150.3,-56 248.3,-50.3 496.6,-53.7 742.3,19.2 30.3,9 59,26.1 86.3,43.3 19.2,12.1 31.2,32.1 22.4,67"
         style="fill:#231f20;fill-opacity:1;fill-rule:nonzero;stroke:none"
         id="path396" />
      <path
         d="m 36442.1,23072.6 c 0,0 -87.2,-765.1 -265.3,-1093.4 0,0 -213.1,84.2 -271.1,153.2 -58,69.1 536.4,940.2 536.4,940.2"
         style="fill:#da2325;fill-opacity:1;fill-rule:nonzero;stroke:none"
         id="path398" />
      <path
         d="m 39638.8,20844.7 93.8,-216 c 0,0 -1400,-32.5 -1796.4,206.8 -396.5,239.3 -824,326 -768.2,134 55.8,-192.1 -86.7,-588.5 68.1,-675.3 154.9,-86.7 594.7,68.2 836.3,0 221.7,-62.5 1668.7,-531.7 2451.5,-206.9 128,53.1 198.6,191.9 166.2,326.7 -41,170.4 -139.2,450.2 -370.6,872.3 l -77,-83.5 c -132.4,-143.5 -298.2,-252.1 -482.6,-316.1 l -121.1,-42"
         style="fill:#fde3e6;fill-opacity:1;fill-rule:nonzero;stroke:none"
         id="path400" />
      <path
         d="m 40242.5,21202.8 c 0,0 -69.3,-599.6 -248.1,-599.6 -178.9,0 -261.8,25.5 -261.8,25.5 l -93.8,216 c 0,0 403.4,100.5 603.7,358.1"
         style="fill:#f8a9b4;fill-opacity:1;fill-rule:nonzero;stroke:none"
         id="path402" />
      <path
         d="m 37467.9,24664.4 c 0,0 235.2,-21.4 356.4,39 121.1,60.4 -253.8,-306.2 -253.8,-306.2 0,0 28.6,172.4 -102.6,267.2"
         style="fill:#f8a9b4;fill-opacity:1;fill-rule:nonzero;stroke:none"
         id="path404" />
      <path
         d="m 31715,31824.6 h -2275.7 c -163.8,0 -296.5,-132.7 -296.5,-296.4 v -1396.7 c 0,-157.3 122.7,-285.7 277.6,-295.5 l -163.1,-556.2 h 163.1 l 600.3,555.2 H 31715 c 163.8,0 296.5,132.8 296.5,296.5 v 1396.7 c 0,163.7 -132.7,296.4 -296.5,296.4"
         style="fill:#b61d23;fill-opacity:1;fill-rule:nonzero;stroke:none"
         id="path406" />
      <path
         d="m 31552,31824.6 h -2275.8 c -163.7,0 -296.5,-132.7 -296.5,-296.4 v -1396.7 c 0,-157.3 122.7,-285.7 277.6,-295.5 v -556.2 l 600.3,555.2 H 31552 c 163.7,0 296.4,132.8 296.4,296.5 v 1396.7 c 0,163.7 -132.7,296.4 -296.4,296.4"
         style="fill:#f0413a;fill-opacity:1;fill-rule:nonzero;stroke:none"
         id="path408" />
      <path
         d="m 29851.1,31157.4 c -58.2,0 -103.5,-23.8 -136.1,-71.4 -32.5,-47.6 -48.8,-113.2 -48.8,-196.9 0,-173.9 66.1,-260.9 198.4,-260.9 40,0 78.8,5.5 116.3,16.7 37.5,11.1 75.2,24.5 113.1,40.2 v -206.5 c -75.4,-33.4 -160.7,-50.1 -255.9,-50.1 -136.5,0 -241,39.6 -313.8,118.7 -72.7,79.1 -109.1,193.5 -109.1,343.1 0,93.6 17.6,175.8 52.8,246.7 35.3,70.9 86,125.4 152.1,163.5 66.2,38.2 144,57.2 233.4,57.2 97.7,0 191.1,-21.2 280.1,-63.7 l -74.8,-192.2 c -33.4,15.6 -66.8,28.8 -100.2,39.5 -33.4,10.8 -69.2,16.1 -107.5,16.1"
         style="fill:#151724;fill-opacity:1;fill-rule:nonzero;stroke:none"
         id="path410" />
      <path
         d="m 30447,30804.4 h -229.9 v 165.7 h 229.9 v 226.9 h 166.3 v -226.9 h 230 v -165.7 h -230 v -223.2 H 30447 v 223.2"
         style="fill:#151724;fill-opacity:1;fill-rule:nonzero;stroke:none"
         id="path412" />
      <path
         d="m 31163.6,30804.4 h -230 v 165.7 h 230 v 226.9 h 166.3 v -226.9 h 230 v -165.7 h -230 v -223.2 h -166.3 v 223.2"
         style="fill:#151724;fill-opacity:1;fill-rule:nonzero;stroke:none"
         id="path414" />
      <path
         d="m 32690.5,32683.7 c 0,-503.7 408.4,-912.1 912.2,-912.1 503.8,0 912.2,408.4 912.2,912.1 0,503.8 -408.4,912.2 -912.2,912.2 -503.8,0 -912.2,-408.4 -912.2,-912.2"
         style="fill:#358c9e;fill-opacity:1;fill-rule:nonzero;stroke:none"
         id="path416" />
      <path
         d="m 32495.7,32683.7 c 0,-503.7 408.4,-912.1 912.2,-912.1 503.8,0 912.2,408.4 912.2,912.1 0,503.8 -408.4,912.2 -912.2,912.2 -503.8,0 -912.2,-408.4 -912.2,-912.2"
         style="fill:#61c1ce;fill-opacity:1;fill-rule:nonzero;stroke:none"
         id="path418" />
      <path
         d="m 32968.4,32857.1 c -38.6,0 -68.7,-15.9 -90.4,-47.5 -21.6,-31.6 -32.4,-75.2 -32.4,-130.8 0,-115.5 43.9,-173.3 131.8,-173.3 26.6,0 52.3,3.7 77.2,11.1 24.9,7.4 50,16.3 75.2,26.7 v -137.2 c -50.1,-22.2 -106.8,-33.2 -170,-33.2 -90.7,0 -160.1,26.2 -208.5,78.8 -48.3,52.6 -72.4,128.5 -72.4,227.9 0,62.2 11.7,116.8 35.1,163.9 23.4,47.1 57.1,83.3 101,108.6 43.9,25.3 95.6,38 155,38 64.9,0 126.9,-14.1 186.1,-42.3 l -49.7,-127.7 c -22.2,10.4 -44.4,19.1 -66.6,26.3 -22.1,7.1 -46,10.7 -71.4,10.7"
         style="fill:#ffffff;fill-opacity:1;fill-rule:nonzero;stroke:none"
         id="path420" />
      <path
         d="m 33639.4,32563.4 c 0,-37.2 -9.4,-70.3 -28.3,-99.2 -18.9,-28.8 -46.1,-51.3 -81.7,-67.3 -35.6,-16 -77.4,-24 -125.3,-24 -40,0 -73.5,2.8 -100.6,8.4 -27.1,5.6 -55.3,15.4 -84.6,29.3 v 144.6 c 30.9,-15.9 63.1,-28.3 96.5,-37.2 33.4,-8.9 64.1,-13.3 92,-13.3 24.1,0 41.8,4.2 53,12.5 11.2,8.4 16.8,19.1 16.8,32.3 0,8.2 -2.2,15.3 -6.8,21.5 -4.5,6.2 -11.7,12.4 -21.7,18.7 -10,6.3 -36.6,19.2 -79.9,38.6 -39.2,17.8 -68.5,35 -88.1,51.7 -19.6,16.7 -34.1,35.9 -43.5,57.5 -9.5,21.7 -14.2,47.3 -14.2,76.8 0,55.3 20.1,98.5 60.4,129.4 40.2,30.9 95.5,46.4 165.9,46.4 62.1,0 125.5,-14.4 190.1,-43.1 l -49.7,-125.3 c -56.1,25.8 -104.5,38.6 -145.3,38.6 -21.1,0 -36.5,-3.7 -46,-11.1 -9.6,-7.3 -14.4,-16.5 -14.4,-27.5 0,-11.7 6.1,-22.3 18.3,-31.6 12.2,-9.3 45.2,-26.3 99.1,-50.9 51.8,-23.3 87.7,-48.3 107.8,-75 20.2,-26.7 30.2,-60.3 30.2,-100.8"
         style="fill:#ffffff;fill-opacity:1;fill-rule:nonzero;stroke:none"
         id="path422" />
      <path
         d="m 34124.9,32563.4 c 0,-37.2 -9.5,-70.3 -28.4,-99.2 -18.9,-28.8 -46.1,-51.3 -81.7,-67.3 -35.6,-16 -77.3,-24 -125.3,-24 -39.9,0 -73.5,2.8 -100.6,8.4 -27.1,5.6 -55.3,15.4 -84.6,29.3 v 144.6 c 31,-15.9 63.1,-28.3 96.5,-37.2 33.4,-8.9 64.1,-13.3 92,-13.3 24.1,0 41.8,4.2 53,12.5 11.2,8.4 16.8,19.1 16.8,32.3 0,8.2 -2.2,15.3 -6.7,21.5 -4.6,6.2 -11.8,12.4 -21.8,18.7 -10,6.3 -36.6,19.2 -79.9,38.6 -39.1,17.8 -68.5,35 -88.1,51.7 -19.5,16.7 -34,35.9 -43.5,57.5 -9.4,21.7 -14.2,47.3 -14.2,76.8 0,55.3 20.2,98.5 60.4,129.4 40.3,30.9 95.6,46.4 165.9,46.4 62.2,0 125.5,-14.4 190.2,-43.1 l -49.7,-125.3 c -56.2,25.8 -104.6,38.6 -145.4,38.6 -21.1,0 -36.4,-3.7 -46,-11.1 -9.6,-7.3 -14.4,-16.5 -14.4,-27.5 0,-11.7 6.1,-22.3 18.3,-31.6 12.2,-9.3 45.2,-26.3 99.2,-50.9 51.7,-23.3 87.7,-48.3 107.8,-75 20.1,-26.7 30.2,-60.3 30.2,-100.8"
         style="fill:#ffffff;fill-opacity:1;fill-rule:nonzero;stroke:none"
         id="path424" />
      <path
         d="m 27949.1,30853.8 c 0,678.7 -550.1,1228.8 -1228.7,1228.8 -678.7,0 -1228.8,-550.1 -1228.8,-1228.8 0,-678.6 550.1,-1228.8 1228.8,-1228.8 166.6,0 325.4,33.4 470.3,93.5 l 149.9,-353.7 h 203.8 v 577.5 c 248.5,224.9 404.7,549.9 404.7,911.5"
         style="fill:#bf1e24;fill-opacity:1;fill-rule:nonzero;stroke:none"
         id="path426" />
      <path
         d="m 27745.4,30853.8 c 0,678.7 -550.2,1228.8 -1228.8,1228.8 -678.7,0 -1228.8,-550.1 -1228.8,-1228.8 0,-678.6 550.1,-1228.8 1228.8,-1228.8 166.6,0 325.4,33.4 470.3,93.5 l 353.7,-353.7 v 577.5 c 248.6,224.9 404.8,549.9 404.8,911.5"
         style="fill:#ef343c;fill-opacity:1;fill-rule:nonzero;stroke:none"
         id="path428" />
      <path
         d="m 26082,30259.9 c -47.9,0 -93.4,4.7 -136.5,14 v 204.4 c 14.2,-2.6 29.3,-5.6 45.3,-9 16,-3.3 33.3,-5 51.9,-5 43.5,0 74.6,13.1 93.2,39.3 18.7,26.2 28,71 28,134.5 v 900.9 h 264.3 v -878.2 c 0,-131.9 -28.8,-231.6 -86.5,-299.3 -57.7,-67.7 -144.3,-101.6 -259.7,-101.6"
         style="fill:#ffffff;fill-opacity:1;fill-rule:nonzero;stroke:none"
         id="path430" />
      <path
         d="m 27205.9,30797.2 c 0,-80.7 -27.5,-141.8 -82.6,-183 -55,-41.3 -134,-62 -237,-62 -55.9,0 -104.5,3 -145.8,9 -41.3,6 -83.5,17 -126.5,33 v 208.4 c 40.4,-17.8 84.7,-32.4 132.8,-44 48.2,-11.5 91.1,-17.3 128.9,-17.3 56.3,0 84.5,12.9 84.5,38.6 0,13.4 -7.9,25.2 -23.6,35.7 -15.8,10.4 -61.6,30.7 -137.5,60.9 -69.3,28.4 -117.6,60.7 -145.2,96.8 -27.5,36.2 -41.2,82.1 -41.2,137.5 0,70.2 27,124.8 81.2,163.8 54.1,39.1 130.7,58.6 229.7,58.6 49.7,0 96.4,-5.4 140.1,-16.3 43.8,-10.9 89.2,-26.7 136.2,-47.6 l -70.6,-167.8 c -34.6,15.6 -71.2,28.8 -109.8,39.6 -38.7,10.9 -70.2,16.4 -94.6,16.4 -42.6,0 -63.9,-10.5 -63.9,-31.3 0,-12.9 7.4,-23.9 22.3,-33 14.9,-9.1 57.8,-27.6 128.8,-55.6 52.9,-21.8 92.3,-43 118.2,-63.9 26,-20.9 45.1,-45.4 57.3,-73.6 12.2,-28.2 18.3,-62.5 18.3,-102.9"
         style="fill:#ffffff;fill-opacity:1;fill-rule:nonzero;stroke:none"
         id="path432" />
      <path
         d="M 31761.1,35480.8 H 29949 c -141.9,0 -257,-115 -257,-257 v -1812.1 c 0,-141.9 115.1,-257 257,-257 h 1065.5 l 416.9,-502.9 h 167.6 v 502.9 h 162.1 c 142,0 257,115.1 257,257 v 1812.1 c 0,142 -115,257 -257,257"
         style="fill:#8eb8b1;fill-opacity:1;fill-rule:nonzero;stroke:none"
         id="path434" />
      <path
         d="m 31593.5,35480.8 h -1812.2 c -141.9,0 -256.9,-115 -256.9,-257 v -1812.1 c 0,-141.9 115,-257 256.9,-257 h 1065.6 l 584.5,-502.9 v 502.9 h 162.1 c 141.9,0 257,115.1 257,257 v 1812.1 c 0,142 -115.1,257 -257,257"
         style="fill:#cadcd7;fill-opacity:1;fill-rule:nonzero;stroke:none"
         id="path436" />
      <path
         d="m 30444.5,34023.2 -601.4,267.1 v 102.3 l 601.4,301 v -176.7 l -368.8,-168.3 368.8,-149.9 v -175.5"
         style="fill:#ffffff;fill-opacity:1;fill-rule:nonzero;stroke:none"
         id="path438" />
      <path
         d="m 31025.6,34799.4 -324.2,-894 h -205.8 l 324.2,894 h 205.8"
         style="fill:#ffffff;fill-opacity:1;fill-rule:nonzero;stroke:none"
         id="path440" />
      <path
         d="m 31070.8,34198.7 368.8,149.9 -368.8,168.3 v 176.7 l 601.4,-301 v -102.3 l -601.4,-267.1 v 175.5"
         style="fill:#ffffff;fill-opacity:1;fill-rule:nonzero;stroke:none"
         id="path442" />
      <path
         d="m 33801.8,27821.6 h -1597.7 c -125.1,0 -226.6,-101.4 -226.6,-226.6 v -956.6 c 0,-125.2 101.5,-226.6 226.6,-226.6 l -97.4,-450.2 h 170.9 l 486.7,450.2 h 1037.5 c 125.1,0 226.5,101.4 226.5,226.6 v 956.6 c 0,125.2 -101.4,226.6 -226.5,226.6"
         style="fill:#131b2f;fill-opacity:1;fill-rule:nonzero;stroke:none"
         id="path444" />
      <path
         d="m 33630.8,27821.6 h -1597.6 c -125.2,0 -226.6,-101.4 -226.6,-226.6 v -956.6 c 0,-125.2 101.4,-226.6 226.6,-226.6 h 73.5 v -450.2 l 486.7,450.2 h 1037.4 c 125.2,0 226.6,101.4 226.6,226.6 v 956.6 c 0,125.2 -101.4,226.6 -226.6,226.6"
         style="fill:#1c254b;fill-opacity:1;fill-rule:nonzero;stroke:none"
         id="path446" />
      <path
         d="m 32474.2,26863.8 h -71.3 v 195.9 h -200.3 v -195.9 h -71.1 v 434.5 h 71.1 v -177.7 h 200.3 v 177.7 h 71.3 v -434.5"
         style="fill:#ffffff;fill-opacity:1;fill-rule:nonzero;stroke:none"
         id="path448" />
      <path
         d="m 32738.7,26863.8 h -71 v 373.6 h -127.8 v 60.9 h 326.6 v -60.9 h -127.8 v -373.6"
         style="fill:#ffffff;fill-opacity:1;fill-rule:nonzero;stroke:none"
         id="path450" />
      <path
         d="m 33120.9,26863.8 -126,362.9 h -2.4 c 3.4,-53.9 5.1,-104.4 5.1,-151.6 v -211.3 h -64.5 v 434.5 h 100.2 l 120.6,-345.6 h 1.8 l 124.2,345.6 h 100.5 v -434.5 h -68.4 v 214.9 c 0,21.6 0.6,49.7 1.7,84.4 1,34.7 2,55.7 2.8,63 h -2.4 l -130.5,-362.3 h -62.7"
         style="fill:#ffffff;fill-opacity:1;fill-rule:nonzero;stroke:none"
         id="path452" />
      <path
         d="m 33494.8,26863.8 v 434.5 h 71 v -373.5 h 184 v -61 h -255"
         style="fill:#ffffff;fill-opacity:1;fill-rule:nonzero;stroke:none"
         id="path454" />
      <path
         d="m 35652.1,30464.6 c 0,540 -437.7,977.8 -977.8,977.8 -540,0 -977.8,-437.8 -977.8,-977.8 0,-497.8 372,-908.4 853.1,-969.6 l 131.4,-417.5 h 152.5 l 131.6,453.2 c 398,123.8 687,495.1 687,933.9"
         style="fill:#e8973d;fill-opacity:1;fill-rule:nonzero;stroke:none"
         id="path456" />
      <path
         d="m 35499.6,30464.6 c 0,540 -437.8,977.8 -977.8,977.8 -540.1,0 -977.8,-437.8 -977.8,-977.8 0,-497.8 372,-908.4 853.1,-969.6 l 283.9,-417.5 131.6,453.2 c 398,123.8 687,495.1 687,933.9"
         style="fill:#fac021;fill-opacity:1;fill-rule:nonzero;stroke:none"
         id="path458" />
      <path
         d="m 34040.2,30526 h 25.2 c 20.9,0 37.4,5.8 49.7,17.5 12.3,11.7 18.4,27.9 18.4,48.5 0,34.6 -19.2,51.9 -57.5,51.9 h -35.8 z m 233.7,66.7 c 0,-57.3 -16.9,-101.6 -50.7,-132.9 -33.8,-31.2 -81.8,-46.8 -144.1,-46.8 h -38.9 v -170.2 h -138.7 v 513.1 h 177.6 c 64.8,0 113.5,-14.2 146,-42.5 32.6,-28.3 48.8,-68.5 48.8,-120.7"
         style="fill:#3a3977;fill-opacity:1;fill-rule:nonzero;stroke:none"
         id="path460" />
      <path
         d="m 34795.5,30242.8 h -139.4 v 209.1 H 34495 v -209.1 h -139.3 v 513.1 h 139.3 v -190.2 h 161.1 v 190.2 h 139.4 v -513.1"
         style="fill:#3a3977;fill-opacity:1;fill-rule:nonzero;stroke:none"
         id="path462" />
      <path
         d="m 35045,30526 h 25.3 c 20.8,0 37.4,5.8 49.6,17.5 12.3,11.7 18.5,27.9 18.5,48.5 0,34.6 -19.2,51.9 -57.6,51.9 h -35.8 z m 233.8,66.7 c 0,-57.3 -16.9,-101.6 -50.8,-132.9 -33.8,-31.2 -81.8,-46.8 -144,-46.8 h -39 v -170.2 h -138.6 v 513.1 h 177.6 c 64.8,0 113.5,-14.2 146,-42.5 32.5,-28.3 48.8,-68.5 48.8,-120.7"
         style="fill:#3a3977;fill-opacity:1;fill-rule:nonzero;stroke:none"
         id="path464" />
      <path
         d="m 24743.9,29292.5 h -1110.6 c -87,0 -157.5,-70.5 -157.5,-157.4 v -1110.6 c 0,-87 70.5,-157.5 157.5,-157.5 h 554.6 l 303.1,-402.7 h 160.3 v 402.7 h 92.6 c 86.9,0 157.5,70.5 157.5,157.5 v 1110.6 c 0,86.9 -70.6,157.4 -157.5,157.4"
         style="fill:#e8973d;fill-opacity:1;fill-rule:nonzero;stroke:none"
         id="path466" />
      <path
         d="M 24583.6,29292.5 H 23473 c -86.9,0 -157.4,-70.5 -157.4,-157.4 v -1110.6 c 0,-87 70.5,-157.5 157.4,-157.5 h 554.6 l 463.4,-402.7 v 402.7 h 92.6 c 87,0 157.5,70.5 157.5,157.5 v 1110.6 c 0,86.9 -70.5,157.4 -157.5,157.4"
         style="fill:#fac021;fill-opacity:1;fill-rule:nonzero;stroke:none"
         id="path468" />
      <path
         d="m 24531.7,28195.6 c 33.1,-33.1 33.1,-86.9 0,-120 -33.1,-33.1 -86.9,-33.1 -120,0 l -236.3,236.2 c -33.1,33.2 -33.1,86.9 0,120.1 33.2,33.1 86.9,33.1 120,0 l 236.3,-236.3"
         style="fill:#3a3977;fill-opacity:1;fill-rule:nonzero;stroke:none"
         id="path470" />
      <path
         d="m 23679.5,28927.8 c -100.2,-100.2 -100.2,-263.3 0,-363.6 100.2,-100.2 263.3,-100.2 363.6,0 100.2,100.3 100.2,263.3 0,363.6 -100.3,100.2 -263.4,100.2 -363.6,0 z m 416.5,-416.5 c -129.4,-129.4 -340,-129.5 -469.4,0 -129.5,129.4 -129.5,340 0,469.4 129.4,129.5 340,129.5 469.4,0 129.4,-129.4 129.4,-340 0,-469.4"
         style="fill:#3a3977;fill-opacity:1;fill-rule:nonzero;stroke:none"
         id="path472" />
      <path
         d="m 24353.5,28306.8 -53,-53 -257.4,257.5 52.9,52.9 257.5,-257.4"
         style="fill:#3a3977;fill-opacity:1;fill-rule:nonzero;stroke:none"
         id="path474" />
      <path
         d="m 10331.9,14667.4 c -132.6,92.2 -304.3,185 -515.28,264.2 -211.48,79.5 -460.63,144.1 -747.56,198 -481.05,90.2 -1180.19,138.1 -1179.1,241.9 0.51,48.3 167.95,102.9 409.13,143.1 240.47,40.1 559.4,59 843.63,24.6 326.06,-39.4 616.58,-148.8 837.25,-292.4 221.73,-144.2 371.13,-318.8 458.23,-469.2 l -106.3,-110.2"
         style="fill:#fcd5dd;fill-opacity:1;fill-rule:nonzero;stroke:none"
         id="path476" />
      <path
         d="m 10380.2,14730.3 c -266.3,288.9 -649.48,469.8 -1047.36,560.4 -401,91.4 -820.22,97.2 -1231.31,89.9"
         style="fill:#fcd5dd;fill-opacity:1;fill-rule:nonzero;stroke:none"
         id="path478" />
      <path
         d="m 8645.41,15376.6 -121.65,103.3"
         style="fill:#fcd5dd;fill-opacity:1;fill-rule:nonzero;stroke:none"
         id="path480" />
      <path
         d="m 8791.77,15368 c -37.06,-40.8 -73.16,-82.1 -108.46,-124"
         style="fill:#fcd5dd;fill-opacity:1;fill-rule:nonzero;stroke:none"
         id="path482" />
      <path
         d="m 9108.07,15333.1 c -23.46,43.3 -47.93,85.9 -73.27,128.3"
         style="fill:#fcd5dd;fill-opacity:1;fill-rule:nonzero;stroke:none"
         id="path484" />
      <path
         d="m 9332.84,15290.7 c -55.43,-34.4 -108.55,-69.8 -160.34,-107.1"
         style="fill:#fcd5dd;fill-opacity:1;fill-rule:nonzero;stroke:none"
         id="path486" />
      <path
         d="m 9577.29,15222.6 c -25.9,58.8 -54.31,117.8 -85.16,175.8"
         style="fill:#fcd5dd;fill-opacity:1;fill-rule:nonzero;stroke:none"
         id="path488" />
      <path
         d="m 9950.72,15061.1 c -48.61,-10.5 -95.12,-20.6 -141.63,-34.5"
         style="fill:#fcd5dd;fill-opacity:1;fill-rule:nonzero;stroke:none"
         id="path490" />
      <path
         d="m 10603.8,14615.7 c -120.4,82.5 -240.7,190.7 -353.8,313.1 -113,122.4 -220.2,258.5 -327.23,390.4 -107.84,133 -213.74,254.4 -344.5,377.9 -129.74,122.5 -277.66,243 -443.38,362.8 -277.86,200.8 -642.53,406.8 -941.56,565.8 -299,158.9 -522.93,283.9 -502.42,353.5 19.3,65.5 278.81,75.2 632.64,9.5 176.61,-32.8 376.55,-84.1 577.55,-158.5 200.77,-74.3 402.36,-171.1 580.46,-283.5 204.26,-128.9 383.4,-281.6 530.54,-446.2 147,-164.5 260,-344.4 340.8,-506.8 81.4,-163.8 144.3,-313.8 205.9,-449.6 61.6,-135.9 123.3,-257.2 191,-364 l -146,-164.4"
         style="fill:#fde2e8;fill-opacity:1;fill-rule:nonzero;stroke:none"
         id="path492" />
      <path
         d="m 10668.6,14710.3 c -222.2,225.5 -366.7,489.7 -524.2,734.9 -39.5,61.5 -80.4,121.6 -122.5,180.8 -42.06,59.3 -89.81,113.7 -135.2,170.9 -97.37,108 -200.67,212.7 -314.11,306.6 -227.28,188.1 -481.66,345.1 -749.55,475.2 -268.07,130.1 -549.62,233.8 -835.05,321.6"
         style="fill:#fde2e8;fill-opacity:1;fill-rule:nonzero;stroke:none"
         id="path494" />
      <path
         d="m 8724.17,16624.4 c -34.35,68.9 -71.19,135.8 -109.5,203.1"
         style="fill:#fde2e8;fill-opacity:1;fill-rule:nonzero;stroke:none"
         id="path496" />
      <path
         d="m 8914.57,16532.5 c -72.44,-33.9 -142.1,-67 -211.69,-104.6"
         style="fill:#fde2e8;fill-opacity:1;fill-rule:nonzero;stroke:none"
         id="path498" />
      <path
         d="m 9309.64,16300.6 c -3.85,70.9 -9.94,142 -18.53,212.1"
         style="fill:#fde2e8;fill-opacity:1;fill-rule:nonzero;stroke:none"
         id="path500" />
      <path
         d="m 9572.59,16103.5 c -91.7,-5.8 -185.18,-21.3 -272.7,-35.5"
         style="fill:#fde2e8;fill-opacity:1;fill-rule:nonzero;stroke:none"
         id="path502" />
      <path
         d="m 9835.87,15852.5 c 9.13,92.3 13.94,187 12.44,281.3"
         style="fill:#fde2e8;fill-opacity:1;fill-rule:nonzero;stroke:none"
         id="path504" />
      <path
         d="m 10184.2,15382.6 c -67.9,22 -135.5,43.4 -202.7,61.4"
         style="fill:#fde2e8;fill-opacity:1;fill-rule:nonzero;stroke:none"
         id="path506" />
      <path
         d="m 10465.1,14807 c -59.2,358.5 -135.3,871.3 -181.9,1493 -19.7,261.5 -40.1,567.6 -49.6,812.2 -9.4,244.3 -5.1,427.5 45.1,438.4 48.4,10.6 139.8,-150.5 226.6,-387.3 86.7,-236.6 165.6,-549 204.9,-828.5 90.5,-643.5 4.1,-1178.5 -87.5,-1525 l -157.6,-2.8"
         style="fill:#fde2e8;fill-opacity:1;fill-rule:nonzero;stroke:none"
         id="path508" />
      <path
         d="m 10546.2,14818 c 34.4,838 -36.1,1687.1 -214.8,2519.8"
         style="fill:#fde2e8;fill-opacity:1;fill-rule:nonzero;stroke:none"
         id="path510" />
      <path
         d="m 10433.3,16787.2 80.4,143"
         style="fill:#fde2e8;fill-opacity:1;fill-rule:nonzero;stroke:none"
         id="path512" />
      <path
         d="m 10455.5,16638.4 c -48.9,28.3 -98.2,56.1 -147.9,83.3"
         style="fill:#fde2e8;fill-opacity:1;fill-rule:nonzero;stroke:none"
         id="path514" />
      <path
         d="m 10496.1,16314.2 109.2,105"
         style="fill:#fde2e8;fill-opacity:1;fill-rule:nonzero;stroke:none"
         id="path516" />
      <path
         d="m 10518.6,16079.9 c -51,43.5 -101.4,86.5 -153.4,128.6"
         style="fill:#fde2e8;fill-opacity:1;fill-rule:nonzero;stroke:none"
         id="path518" />
      <path
         d="m 10537.6,15818.4 138.5,144.1"
         style="fill:#fde2e8;fill-opacity:1;fill-rule:nonzero;stroke:none"
         id="path520" />
      <path
         d="m 10553.3,15394.8 -100.6,115.4"
         style="fill:#fde2e8;fill-opacity:1;fill-rule:nonzero;stroke:none"
         id="path522" />
      <path
         d="m 10649.9,14699.8 c 19.9,378.1 84.1,927.8 285.6,1553.2 169.4,525.6 473,1194.2 572.2,1160.5 97.3,-33.1 -15.5,-746.4 -152.6,-1293.9 -157.4,-628.4 -377.6,-1121.2 -546.4,-1451.2 l -158.8,31.4"
         style="fill:#fde2e8;fill-opacity:1;fill-rule:nonzero;stroke:none"
         id="path524" />
      <path
         d="m 10733.8,14693.3 c 219.9,841.3 457.4,1676.7 712.6,2505.6"
         style="fill:#fde2e8;fill-opacity:1;fill-rule:nonzero;stroke:none"
         id="path526" />
      <path
         d="m 11280.9,16652 137.9,94.8"
         style="fill:#fde2e8;fill-opacity:1;fill-rule:nonzero;stroke:none"
         id="path528" />
      <path
         d="m 11237.2,16504.4 -101.9,141.9"
         style="fill:#fde2e8;fill-opacity:1;fill-rule:nonzero;stroke:none"
         id="path530" />
      <path
         d="m 11143.4,16183 144.9,55.8"
         style="fill:#fde2e8;fill-opacity:1;fill-rule:nonzero;stroke:none"
         id="path532" />
      <path
         d="m 11076.9,15950.7 -98.9,181.5"
         style="fill:#fde2e8;fill-opacity:1;fill-rule:nonzero;stroke:none"
         id="path534" />
      <path
         d="m 11003.7,15691.3 183.3,91.4"
         style="fill:#fde2e8;fill-opacity:1;fill-rule:nonzero;stroke:none"
         id="path536" />
      <path
         d="m 10887.5,15270 -65.1,144.4"
         style="fill:#fde2e8;fill-opacity:1;fill-rule:nonzero;stroke:none"
         id="path538" />
      <path
         d="m 10313.9,14433.1 c 100.2,194.8 285.5,396.4 515.9,565.2 229.6,168.3 515.6,326.4 849.3,430.7 140,43.8 294.4,78.9 446.6,102.3 152.2,23.4 303.9,30.9 428.3,34.3 125.5,3.4 231.8,12.5 313.1,23.8 80.7,11.3 136,21 151.1,-1.7 13.8,-20.9 -15.1,-77.1 -89.6,-139.3 -74.5,-62.3 -192.8,-123.1 -321.6,-167.2 -130.7,-44.9 -263.2,-87.8 -393.2,-132.1 -134.9,-46.1 -271.3,-97.7 -398.7,-147.6 -292.1,-114.4 -556.4,-227.2 -791.5,-333.2 -233.3,-105.2 -427.6,-208.8 -574.5,-329.7 l -135.2,94.5"
         style="fill:#fcd5dd;fill-opacity:1;fill-rule:nonzero;stroke:none"
         id="path540" />
      <path
         d="m 10390,14393.1 c 148.1,184.9 336,319.8 526.9,434.8 191.5,115.3 390.9,214.8 595.6,299.2 204.7,84.4 414.9,152.5 627.8,205.4 106.6,26.6 213.5,47.8 321.8,66.8 108.6,19.1 220.5,37.8 333.1,74.7"
         style="fill:#fcd5dd;fill-opacity:1;fill-rule:nonzero;stroke:none"
         id="path542" />
      <path
         d="m 12218.2,15351.1 c 51,-25.7 100.5,-50.7 149.6,-78.1"
         style="fill:#fcd5dd;fill-opacity:1;fill-rule:nonzero;stroke:none"
         id="path544" />
      <path
         d="m 12067.1,15313.8 c 22.9,54.8 47.1,109 72.6,163.2"
         style="fill:#fcd5dd;fill-opacity:1;fill-rule:nonzero;stroke:none"
         id="path546" />
      <path
         d="m 11742.4,15214.7 c 43.9,-29.3 87.2,-59.3 129.6,-89.4"
         style="fill:#fcd5dd;fill-opacity:1;fill-rule:nonzero;stroke:none"
         id="path548" />
      <path
         d="m 11512.5,15127.1 c 27.4,64.9 57,128.7 88.1,193.4"
         style="fill:#fcd5dd;fill-opacity:1;fill-rule:nonzero;stroke:none"
         id="path550" />
      <path
         d="m 11261.3,15014.4 c 64.5,-25.3 128.7,-53.4 191,-81.2"
         style="fill:#fcd5dd;fill-opacity:1;fill-rule:nonzero;stroke:none"
         id="path552" />
      <path
         d="m 10868.5,14798.3 c 17.7,51.1 36.5,102.7 56.5,153.5"
         style="fill:#fcd5dd;fill-opacity:1;fill-rule:nonzero;stroke:none"
         id="path554" />
      <path
         d="M 11453.4,12010.9 H 9459.78 c -89.5,0 -162.04,72.5 -162.04,162 v 2704.9 c 0,38.7 31.35,70 70.01,70 h 2201.65 c 40.9,0 74.1,-33.1 74.1,-74 v -2672.9 c 0,-104.9 -85.1,-190 -190.1,-190"
         style="fill:#fcd5dd;fill-opacity:1;fill-rule:nonzero;stroke:none"
         id="path556" />
      <path
         d="m 9679.16,12783.3 v 1830.8 c 0,184.3 149.41,333.7 333.74,333.7 h -381.42 c -184.31,0 -333.74,-149.4 -333.74,-333.7 v -1830.8 c 0,-426.6 345.8,-772.4 772.36,-772.4 h 381.4 c -426.5,0 -772.34,345.8 -772.34,772.4"
         style="fill:#f8b6c0;fill-opacity:1;fill-rule:nonzero;stroke:none"
         id="path558" />
      <path
         d="M 11847.3,14521.4 H 9044.77 c -16.6,0 -30.05,13.5 -30.05,30.1 v 475.6 c 0,16.6 13.45,30.1 30.05,30.1 h 2802.53 c 16.6,0 30,-13.5 30,-30.1 v -475.6 c 0,-16.6 -13.4,-30.1 -30,-30.1"
         style="fill:#fde2e8;fill-opacity:1;fill-rule:nonzero;stroke:none"
         id="path560" />
      <path
         d="m 38936.5,40137.6 c 36.3,23.7 72.7,1.2 109,0.4 -1.3,-408.6 -3.7,-817.2 -3.7,-1225.8 0.1,-315.6 4.5,-631.3 4.7,-946.9 0.6,-1198.4 1.2,-2396.9 -1.2,-3595.3 -0.2,-83.7 16,-120.4 108.1,-136.3 207.1,-35.7 294.6,-152.1 299,-363.3 0.6,-27.3 1.4,-54.5 1.7,-81.7 1.6,-157.4 0.3,-162.1 143.7,-198.1 318.2,-79.7 601.7,-231.3 872.5,-410.3 320.6,-212 583.7,-479.6 774.6,-815 106.9,-187.8 184.8,-387.1 230.4,-598.9 9.7,-45 8,-93.3 56.9,-128.1 33.7,-24.1 14.1,-61 -28.8,-67.3 -32,-4.6 -65.2,-1.8 -97.9,-1.8 -621.3,-0.1 -1242.6,0 -1863.9,0 -613.9,0 -1227.7,0 -1841.5,0 -388,0 -776,-0.4 -1164,0.5 -33.3,0.1 -75.5,-16.3 -96.4,24.1 -21.6,41.8 20.8,51.4 41.8,73.6 13.1,13.8 13.3,40.6 17.6,61.8 115,562.3 419.5,1002.8 869.6,1348.3 329.4,253 695.7,433.6 1096.8,542 47.2,12.8 68.4,31.3 64.2,82.3 -4.6,54.1 -1.3,108.9 -1.1,163.4 0.4,216.5 85.9,329.5 301.1,368.7 87.8,16 109.1,46.7 108.8,133.8 -3.3,1144.5 -3.8,2289 -1,3433.5 0.9,335.7 6.3,671.7 4.3,1007 -2.6,443 1.1,886.3 -5.3,1329.4"
         style="fill:#feebee;fill-opacity:1;fill-rule:nonzero;stroke:none"
         id="path562" />
    </g>
  </g>
</svg>
